/* XPM */
static char *c93ac4c39f304c2eabb93ee249bed967kubhF5kt0ZuTV3Ot[] = {
/* columns rows colors chars-per-pixel */
"126 126 3 1 ",
"  c None",
". c black",
"X c #421515",
/* pixels */
"                                                                                                                              ",
"                                                                                                                              ",
"                                                                                                                              ",
"                                                                                                                              ",
"                                                                                                                              ",
"                                                                                                                              ",
"                                                                                                                              ",
"                                                                                                                              ",
"                                                                                                                              ",
"                                                                                                                              ",
"                                                                                                                              ",
"                                                                                                                              ",
"                                                                                                                              ",
"                                                                                                                              ",
"                                                                                                                              ",
"                                                                                                                              ",
"                                                                                                                              ",
"                                                                                                                              ",
"                                                                                                                              ",
"                                                                                                                              ",
"                                                                                                                              ",
"                                                                                                                              ",
"                                                                                                                              ",
"                                                                                                                              ",
"                                                                                                                              ",
"                                                                                                                              ",
"                                                                .                                                             ",
"                                                                .                                                             ",
"                                                               ...                                                            ",
"                                                               ...                                                            ",
"                                                              .....                                                           ",
"                                                              .....                                                           ",
"                                                             .......                                                          ",
"                                                             .......                                                          ",
"                                                            ....X....                                                         ",
"                                                            ....X....                                                         ",
"                                                           ....XXX....                                                        ",
"                                                           ....XXX....                                                        ",
"                                                          ....XXXXX....                                                       ",
"                                                          ...XXXXXXX...                                                       ",
"                                                         ....XXXXXXX....                                                      ",
"                                                         ...XXXXXXXXX...                                                      ",
"                                                        ....XXXXXXXXX....                                                     ",
"                                                        ...XXXXXXXXXXX...                                                     ",
"                                                       ....XXXXXXXXXXX....                                                    ",
"                                                       ...XXXXXXXXXXXXX...                                                    ",
"                                                      ....XXXXXXXXXXXXX....                                                   ",
"                                                      ....XXXXXXXXXXXXX....                                                   ",
"                                                     ....XXXXXXXXXXXXXXX....                                                  ",
"                                                     ....XXXXXXXXXXXXXXX....                                                  ",
"                                                    ....XXXXXXXXXXXXXXXXX....                                                 ",
"                                                    ....XXXXXXXXXXXXXXXXX....                                                 ",
"                                                   .....XXXXXXXXXXXXXXXXX.....                                                ",
"                                                   ....XXXXXXXXXXXXXXXXXXX....                                                ",
"                                                  .....XXXXXXXXXXXXXXXXXXX.....                                               ",
"                                                  ....XXXXXXXXXXXXXXXXXXXXX....                                               ",
"                                                 .....XXXXXXXXXXXXXXXXXXXXX.....                                              ",
"                                                 ....XXXXXXXXXXXXXXXXXXXXXXX....                                              ",
"                                                .....XXXXXXXXXXXXXXXXXXXXXXX.....                                             ",
"                                                ....XXXXXXXXXXXXXXXXXXXXXXXXX....                                             ",
"                                               .....XXXXXXXXXXXXXXXXXXXXXXXXX.....                                            ",
"                                               ....XXXXXXXXXXXXXXXXXXXXXXXXXXX....                                            ",
"                                              .....XXXXXXXXXXXXXXXXXXXXXXXXXXX.....                                           ",
"                                              .....XXXXXXXXXXXXXXXXXXXXXXXXXXX.....                                           ",
"                                             .....XXXXXXXXXXXXXXXXXXXXXXXXXXXXX.....                                          ",
"                                             .....XXXXXXXXXXXXXXXXXXXXXXXXXXXXX.....                                          ",
"                                            .....XXXXXXXXXXXXXXXXXXXXXXXXXXXXXXX.....                                         ",
"                                            .....XXXXXXXXXXXXXXXXXXXXXXXXXXXXXXX.....                                         ",
"                                           .....XXXXXXXXXXXXXXXXXXXXXXXXXXXXXXXXX.....                                        ",
"                                           .....XXXXXXXXXXXXXXXXXXXXXXXXXXXXXXXXX.....                                        ",
"                                          .....XXXXXXXXXXXXXXXXXXXXXXXXXXXXXXXXXXX.....                                       ",
"                                          .....XXXXXXXXXXXXXXXXXXXXXXXXXXXXXXXXXXX.....                                       ",
"                                         .....XXXXXXXXXXXXXXXXXX.XXXXXXXXXXXXXXXXXX.....                                      ",
"                                         .....XXXXXXXXXXXXXXXXX...XXXXXXXXXXXXXXXXX.....                                      ",
"                                        .....XXXXXXXXXXXXXXXX.......XXXXXXXXXXXXXXXX.....                                     ",
"                                        .....XXXXXXXXXXXXXXX.........XXXXXXXXXXXXXXX.....                                     ",
"                                       ......XXXXXXXXXXXXXX...........XXXXXXXXXXXXXX......                                    ",
"                                       .....XXXXXXXXXXXXXX...... ......XXXXXXXXXXXXXX.....                                    ",
"                                      ......XXXXXXXXXXXX.......   .......XXXXXXXXXXXX......                                   ",
"                                      .....XXXXXXXXXXXX.......     .......XXXXXXXXXXXX.....                                   ",
"                                     ......XXXXXXXXXXXX......       ......XXXXXXXXXXXX......                                  ",
"                                     .....XXXXXXXXXXXX......         ......XXXXXXXXXXXX.....                                  ",
"                                    ......XXXXXXXXXXX......           ......XXXXXXXXXXX......                                 ",
"                                    .....XXXXXXXXXXX......             ......XXXXXXXXXXX.....                                 ",
"                                   ......XXXXXXXXX.......               .......XXXXXXXXX......                                ",
"                                   .....XXXXXXXXXX......                 ......XXXXXXXXXX.....                                ",
"                                  ......XXXXXXXXX......                   ......XXXXXXXXX......                               ",
"                                  .....XXXXXXXXX......                     ......XXXXXXXXX.....                               ",
"                                  .....XXXXXXXX......                       ......XXXXXXXX.....                               ",
"                                 .....XXXXXXXX.....                           .....XXXXXXXX.....                              ",
"                                 .....XXXXXX......                             ......XXXXXX.....                              ",
"                                 .....XXXXX......                               ......XXXXX.....                              ",
"                                 .....XXX.......                                 .......XXX.....                              ",
"                                ...............                                   ...............                             ",
"                                ..............                                     ..............                             ",
"                                .............                                       .............                             ",
"                                ............                                         ............                             ",
"                               ...........                                             ...........                            ",
"                               .........                                                 .........                            ",
"                               .......                                                     .......                            ",
"                               .....                                                         .....                            ",
"                                                                                                                              ",
"                                                                                                                              ",
"                                                                                                                              ",
"                                                                                                                              ",
"                                                                                                                              ",
"                                                                                                                              ",
"                                                                                                                              ",
"                                                                                                                              ",
"                                                                                                                              ",
"                                                                                                                              ",
"                                                                                                                              ",
"                                                                                                                              ",
"                                                                                                                              ",
"                                                                                                                              ",
"                                                                                                                              ",
"                                                                                                                              ",
"                                                                                                                              ",
"                                                                                                                              ",
"                                                                                                                              ",
"                                                                                                                              ",
"                                                                                                                              ",
"                                                                                                                              ",
"                                                                                                                              ",
"                                                                                                                              ",
"                                                                                                                              "
};
