
/* XPM */
static char *ee293de5b1b34a679cf3fb1e21b7830aRObwIn4sV5NE1DUC[] = {
/* columns rows colors chars-per-pixel */
"75 75 2 1 ",
"  c #6D3838",
". c #0000FF",
/* pixels */
"...........................................................................",
"...........................................................................",
".....    ..................................................................",
".....    ..................................................................",
".....    ..................................................................",
".....    ..................................................................",
".....    ..................................................................",
".....    ..................................................................",
".....    ..................................................................",
".....    ..................................................................",
".....    ..................................................................",
".....    .......................................          .................",
".....     ...................................                ..............",
".....     ................................                      ...........",
".....     ................................                        .........",
"......    ................................         ....             .......",
"......    ................................      ..........          .......",
"......    ................................    ...............       .......",
"......    .....................................................     .......",
"......    ......................................................     ......",
"......    ......................................................     ......",
"......    ......................................................     ......",
"......    .......................................................    ......",
"......    .......................................................    ......",
"......    .......................................................    ......",
"......    .......................................................    ......",
".....     .......................................................    ......",
".....     .......................................................    ......",
".....     .......................................................    ......",
".....    ........................................................    ......",
".....    ........................................................    ......",
".....    .......................................................     ......",
".....    .......................................................     ......",
"....     .......................................................     ......",
"....     .......................................................    .......",
"....     .......................................................    .......",
"....    .......................................................     .......",
"....    ................    ...................................     .......",
"....    ...............     ...................................     .......",
"...     ...............     ..................................     ........",
"...     ...............     ..................................     ........",
"...     ...............    ..................................      ........",
"..     ....           .    ..................................     .........",
"..                              ............................      .........",
"..                              ............................     ..........",
"..                              ...........................      ..........",
"..            .....             ..........................      ...........",
"..        ............     ..............................       ...........",
"......................    ...............................      ............",
"......................    ..............................      .............",
"......................    .............................      ..............",
"......................    ............................       ..............",
"......................    ............................      ...............",
"......................    ...........................      ................",
"......................    ..........................      .................",
"......................    ........................        .................",
".................................................        ..................",
"................................................        ...................",
"...............................................        ....................",
".............................................        ......................",
"............................................        .......................",
"...........................................        ........................",
".........             ....................        .........................",
".........                                       ...........................",
".........                                            ......................",
".........                                                                ..",
"...........                                                                ",
"..............               .....                                         ",
"................                          ........                         ",
"..................                       .............................     ",
".....................                  ....................................",
"..........................           ......................................",
"...........................................................................",
"...........................................................................",
"..........................................................................."
};
