/* XPM */
static char *_1caed3cfa294fb4ed05699f2a511b26wRpieLK78F7iUYy5[] = {
/* columns rows colors chars-per-pixel */
"100 100 2 1 ",
"  c #6D3838",
". c #0000FF",
/* pixels */
"....................................................................................................",
"....................................................................................................",
"....................................................................................................",
"....................................................................................................",
"....................................................................................................",
"....................................................................................................",
"....................................................................................................",
"....................................................................................................",
"....................................................................................................",
"....................................................................................................",
"....................................................................................................",
"....................................................................................................",
"....................................................................................................",
"....................................................................................................",
"....................................................................................................",
"..................    ..............................................................................",
"..................    ..............................................................................",
"..................    ..............................................................................",
"..................    ..............................................................................",
"..................    ..............................................................................",
"..................    ..............................................................................",
"..................    ..............................................................................",
"..................    ..............................................................................",
"..................    ..............................................................................",
"..................    .......................................          .............................",
"..................     ...................................                ..........................",
"..................     ................................                      .......................",
"..................     ................................                        .....................",
"...................    ................................         ....             ...................",
"...................    ................................      ..........          ...................",
"...................    ................................    ...............       ...................",
"...................    .....................................................     ...................",
"...................    ......................................................     ..................",
"...................    ......................................................     ..................",
"...................    ......................................................     ..................",
"...................    .......................................................    ..................",
"...................    .......................................................    ..................",
"...................    .......................................................    ..................",
"...................    .......................................................    ..................",
"..................     .......................................................    ..................",
"..................     .......................................................    ..................",
"..................     .......................................................    ..................",
"..................    ........................................................    ..................",
"..................    ........................................................    ..................",
"..................    .......................................................     ..................",
"..................    .......................................................     ..................",
".................     .......................................................     ..................",
".................     .......................................................    ...................",
".................     .......................................................    ...................",
".................    .......................................................     ...................",
".................    ................    ...................................     ...................",
".................    ...............     ...................................     ...................",
"................     ...............     ..................................     ....................",
"................     ...............     ..................................     ....................",
"................     ...............    ..................................      ....................",
"...............     ....           .    ..................................     .....................",
"...............                              ............................      .....................",
"...............                              ............................     ......................",
"...............                              ...........................      ......................",
"...............            .....             ..........................      .......................",
"...............        ............     ..............................       .......................",
"...................................    ...............................      ........................",
"...................................    ..............................      .........................",
"...................................    .............................      ..........................",
"...................................    ............................       ..........................",
"...................................    ............................      ...........................",
"...................................    ...........................      ............................",
"...................................    ..........................      .............................",
"...................................    ........................        .............................",
"..............................................................        ..............................",
".............................................................        ...............................",
"............................................................        ................................",
"..........................................................        ..................................",
".........................................................        ...................................",
"........................................................        ....................................",
"......................             ....................        .....................................",
"......................                                       .......................................",
"......................                                            ..................................",
"......................                                                                ..............",
"........................                                                                    ........",
"...........................               .....                                             ........",
".............................                          ........                             ........",
"...............................                       .............................         ........",
"..................................                  ................................................",
".......................................           ..................................................",
"....................................................................................................",
"....................................................................................................",
"....................................................................................................",
"....................................................................................................",
"....................................................................................................",
"....................................................................................................",
"....................................................................................................",
"....................................................................................................",
"....................................................................................................",
"....................................................................................................",
"....................................................................................................",
"....................................................................................................",
"....................................................................................................",
"....................................................................................................",
"...................................................................................................."
};
