/* XPM */
static char *Portal271707327666[] = {
/* columns rows colors chars-per-pixel */
"64 64 81 1 ",
"  c #FFFFFF",
". c black",
"X c #050007",
"o c #100116",
"O c #160021",
"+ c #1A0125",
"@ c #240134",
"# c #2B003F",
"$ c #2F0143",
"% c #36004E",
"& c #370050",
"* c #3F005D",
"= c #41005D",
"- c #41005F",
"; c #4B006E",
": c #4C006C",
"> c #57007B",
", c #56007D",
"< c #60008C",
"1 c #6B009B",
"2 c #6B029B",
"3 c #7600AA",
"4 c #7602AA",
"5 c #8100B9",
"6 c #8002B9",
"7 c #8A00C6",
"8 c #8B00C9",
"9 c #8B02C8",
"0 c #8C00C8",
"q c #9100D2",
"w c #9500D5",
"e c #9700D7",
"r c #9602D7",
"t c #9F00E5",
"y c #A000E4",
"u c #A200E6",
"i c #A102E6",
"p c #A700F0",
"a c #AA00F4",
"s c #AC02F5",
"d c #AC00F6",
"f c #B101FF",
"g c #B200FF",
"h c #B403FF",
"j c #B304FF",
"k c #B409FD",
"l c #B70FFF",
"z c #B713FF",
"x c #B912FF",
"c c #B818FD",
"v c #B918FD",
"b c #BB1FFF",
"n c #BC1EFF",
"m c #BE21FF",
"M c #BE27FD",
"N c #C12DFF",
"B c #C22DFF",
"V c #C230FF",
"C c #C53DFF",
"Z c #C63CFF",
"A c #C73FFF",
"S c #C740FF",
"D c #CA4BFF",
"F c #CA4CFF",
"G c #CB4EFF",
"H c #CB4FFF",
"J c #CC54FD",
"K c #CE5AFF",
"L c #CF5BFF",
"P c #CF5DFF",
"I c #D05EFF",
"U c #D063FD",
"Y c #D36AFF",
"T c #D46CFF",
"R c #D46DFF",
"E c #D97CFF",
"W c #DD8AFF",
"Q c #E6A8FF",
"! c #EAB7FF",
"~ c #EAB9FF",
"^ c #F3D5FF",
/* pixels */
"                                                                ",
"                                                                ",
"                                                                ",
"                                                                ",
"                                                                ",
"                                                                ",
"                                                                ",
"                                                                ",
"                             xx xx                              ",
"                          n       x                             ",
"                             vxx  x                             ",
"                       n     Cammx                              ",
"                        MK  NUximAes                            ",
"                          JCD33IeIhi                            ",
"                      x  snl$50eteGy   x                        ",
"                     xx inni33337  Ri                           ",
"                      xJNlg$31=33a hR7                          ",
"                    x s ngi$#==3370 eQ                          ",
"                    v Mlgl11==%=337  VC                         ",
"                    x kg3i<======37a SE                         ",
"                    g N 31<=$$=3==37gaRJ                        ",
"                   xgv  m3<%$$o===379tEH                        ",
"                    l gsg<<==$$===277tj~                        ",
"                    lGiD;<<@O$$$=#<3777R  x                     ",
"                    mnsg<<3@+==$o=;373xC                        ",
"                   x lM1<<$+@$O$=3O=77xmE                       ",
"                   mNgvq<&$oo$OO=====37x                        ",
"                   RCgC5<X@ooO%+=====37xx                       ",
"                D iI  i5<Xooo$@%=====3 xH                       ",
"                N gP l99<,o+o$@o===,=3xxH                       ",
"                   vllee;XoX++oo====373xC                       ",
"                   kng521X,oo+@$$$==137xGW                      ",
"                    lgx32XX+X+$$=$3=<03xGW                      ",
"                  Vglgz13XX..@$$=$==333xR                       ",
"                  GgglN,2<X$+$=$=$=#;33mE                       ",
"                   gilli<;2@+$o==$==137HI                       ",
"                   xivp;<,1+$o$====>=37HE                       ",
"                   xvs 32=1&$o=$$==:=73Wh Ix                    ",
"                   mvn p<;<3oo====3=373Qx  x                    ",
"                    xC  3<11oo$$$===37x^                        ",
"                    VkG3i2;2$=$$=:=337V A                       ",
"                    mmGi3<23#=$$=:133x!                         ",
"                    xmKg3e23#=$=:=33x0                          ",
"                     NGig9323===>#33xV                          ",
"                      NNgge$3===%13xVQ                          ",
"                      NGgg9$33=t,3xxm                           ",
"                       Ygggg$55733xV                            ",
"                        gbgzs$3333x                             ",
"                        YlCgg33333 W                            ",
"                         nCbg3t3xV                              ",
"                          K mgg3x                               ",
"                             Cv                                 ",
"                                                                ",
"                                                                ",
"                               xx                               ",
"                                                                ",
"                                                                ",
"                                                                ",
"                                                                ",
"                                                                ",
"                                                                ",
"                                                                ",
"                                                                ",
"                                                                "
};
