/* XPM */
static char *Portal221707327666[] = {
/* columns rows colors chars-per-pixel */
"64 64 83 1 ",
"  c #FFFFFF",
". c black",
"X c #020003",
"o c #030005",
"O c #050007",
"+ c #0C0012",
"@ c #100116",
"# c #14001E",
"$ c #160021",
"% c #1F002D",
"& c #210030",
"* c #220032",
"= c #230232",
"- c #2B003F",
"; c #2C0041",
": c #2E0241",
"> c #36004E",
", c #370050",
"< c #380250",
"1 c #41005D",
"2 c #41005F",
"3 c #42025F",
"4 c #4B006E",
"5 c #4D026E",
"6 c #56007D",
"7 c #57027D",
"8 c #60008C",
"9 c #61028C",
"0 c #6B009B",
"q c #6B029B",
"w c #7100A5",
"e c #7502AA",
"r c #7602AA",
"t c #7F02B9",
"y c #8002B9",
"u c #B40BB6",
"i c #8600C3",
"p c #8902C8",
"a c #8A02C8",
"s c #8B02C8",
"d c #9100D2",
"f c #9402D7",
"g c #9502D7",
"h c #9602D7",
"j c #9C00E1",
"k c #9D02E6",
"l c #9E02E6",
"z c #9F02E6",
"x c #A102E6",
"c c #A700F0",
"v c #A802F5",
"b c #A902F5",
"n c #B200FF",
"m c #B500FF",
"M c #B409FD",
"N c #B70FFF",
"B c #B618FD",
"V c #B918FD",
"C c #BC1EFF",
"Z c #BE1EFF",
"A c #C12DFF",
"S c #C22DFF",
"D c #C63CFF",
"F c #C345FD",
"G c #C545FD",
"H c #C845FD",
"J c #C94BFF",
"K c #CA4BFF",
"L c #C854FD",
"P c #CA54FD",
"I c #CC54FD",
"U c #CE5AFF",
"Y c #D063FD",
"T c #D369FF",
"R c #D778FF",
"E c #D981FD",
"W c #DC87FF",
"Q c #E096FF",
"! c #E5A5FF",
"~ c #E9B4FF",
"^ c #EDC3FF",
"/ c #EFCCFD",
"( c white",
/* pixels */
"                                                                ",
"                                                                ",
"                                                                ",
"                                                                ",
"                                                                ",
"                                                                ",
"                                                                ",
"                                                                ",
"                                                                ",
"                           n                                    ",
"                           nnnnnn                               ",
"                           CCnCnn                               ",
"                          NNn nDNn  N                           ",
"                         nCnNnNCNA                              ",
"                        NNnNnnNnNAn                             ",
"                      nnNCNjcjc NN  n                           ",
"                      nnCnKMCxjj CA n                           ",
"                     nnCNnEPEY^KcACnn                           ",
"                     nnAnNtvMGIRQANDn                           ",
"                     nNNnNppq<VHWDCNA                           ",
"                     nCCNv7q=97VFUNn NN                         ",
"                     NNn hhf9h9sB^TDnNA                         ",
"                    nCCnmq->>10yB/RAN N                         ",
"                    nNNn111111h4hETAnn                          ",
"                    n C 1eq$1111<PTWAn N                        ",
"                   n Nn h1>&&1111kl(Dc N                        ",
"                   nACNnes61&-111ppKQjNN                        ",
"                   nnCnn<s1@0&-11-kURd C                        ",
"                   n Nndqq@@O4>-1+kUQc                          ",
"                 N n Cnwyy@@@6$>-1vTWc A                        ",
"                   nNNniey@@@@*X->1R!jNC                        ",
"                   CnN dee@O.@..1&qjKnCnN                       ",
"                  CN Kniqq@.....115iRCcnC                       ",
"                  NN nni69@....+>13jCNcn                        ",
"                  AnnUjwy4.@.#.%>1:dACjC                        ",
"                  AnnAcch=1....o1sqdD cmn                       ",
"                   NNnCih=148..-1yqdDC Rn                       ",
"                   DNDdnh51$41;117rjDD C                        ",
"                  nNCA nmrq>>.>11r7cDNNC                        ",
"                  n NCAnny7r;1<1>qydKNCC                        ",
"                     CnUndys1.<1.hdnANCn                        ",
"                    u nANnsr16h1rhdCN n                         ",
"                     NDCnNjh111rsjccAUc                         ",
"                      NADAnc hhqrjcACn                          ",
"                       nUCnjrrdsijNRn                           ",
"                       NCNNny9j dNKD                            ",
"                   NN   NDAcjdcnNmCC                            ",
"                        NNCKc nnAjN                             ",
"                       NnKNKNnnc cN                             ",
"                          nDCnncdCN                             ",
"                            N~Cc                                ",
"                             n                                  ",
"                                                                ",
"                                                                ",
"                                                                ",
"                                                                ",
"                                                                ",
"                                                                ",
"                                                                ",
"                                                                ",
"                                                                ",
"                                                                ",
"                                                                ",
"                                                                "
};
