/* XPM */
static char *Portal091707327664[] = {
/* columns rows colors chars-per-pixel */
"64 64 74 1 ",
"  c #FFFFFF",
". c #480069",
"X c #6D066D",
"o c #5C0087",
"O c #670096",
"+ c #680096",
"@ c #7100A5",
"# c #7A00B4",
"$ c #7B00B4",
"% c #8A088C",
"& c #980999",
"* c #98099A",
"= c #99099B",
"- c #A60AA8",
"; c #B40BB6",
": c #8500C3",
"> c #8600C3",
", c #8D00D2",
"< c #9000D2",
"1 c #9100D2",
"2 c #9A00E1",
"3 c #9C00E1",
"4 c #9F00E1",
"5 c #A300F0",
"6 c #A400F0",
"7 c #A700F0",
"8 c #AD00FF",
"9 c #B100FF",
"0 c #B200FF",
"q c #B500FF",
"w c #B20FFF",
"e c #B60FFF",
"r c #B70FFF",
"t c #BA0FFF",
"y c #BB1EFF",
"u c #BC1EFF",
"i c #BE1EFF",
"p c #BC2DFF",
"a c #C20CC4",
"s c #C800C8",
"d c #D00DD2",
"f c #DD0EDD",
"g c #DE0EE0",
"h c #DF0EE1",
"j c #EC0FEE",
"k c #F304F8",
"l c #F504F8",
"z c #F604F9",
"x c #EF1CF1",
"c c #F811FB",
"v c #F71FFB",
"b c #C12DFF",
"n c #C63CFF",
"m c #F02AF2",
"M c #F620FB",
"N c #F820FB",
"B c #F72FFB",
"V c #F82FFB",
"C c #F83EFB",
"Z c #C94BFF",
"A c #CA5AFF",
"S c #CD5AFF",
"D c #CE5AFF",
"F c #D05AFF",
"G c #F247F4",
"H c #F94DFB",
"J c #FA5CFB",
"K c #D269FF",
"L c #D369FF",
"P c #D478FF",
"I c #FA6BFB",
"U c #FA7AFB",
"Y c #FB89FB",
"T c #FB98FB",
/* pixels */
"                                                                ",
"                                                                ",
"                                                                ",
"                                                                ",
"                                                                ",
"                                                                ",
"                                                                ",
"                                                                ",
"                                                                ",
"                                                                ",
"                            ,L80u                               ",
"                           pw1@A:                               ",
"                          35    bu                              ",
"                                 $                              ",
"                        u        n0                             ",
"                        $  VUI   r  1                           ",
"                          cIUN    un$                           ",
"                     n 1  TIVzU     7                           ",
"                       $ JIc  z     5                           ",
"                        uNHH          @                         ",
"                        0IVV         t:                         ",
"                       7 JCz         7$                         ",
"                       0UcJ            :                        ",
"                       uUNV            :                        ",
"                      $ YH           0 .                        ",
"                      1 CV                                      ",
"                       INH                                      ",
"                       NN                                       ",
"                       NI              +                        ",
"                       YN              1                        ",
"                       HC              3                        ",
"                       I*              tt                       ",
"                      uCz              3u                       ",
"                  3   bVv                                       ",
"                      FBz                                       ",
"                      :Mm                                       ",
"                    3 5*j              t                        ",
"                      $G;              S                        ",
"                     01fa             3t                        ",
"                  1  73s;             q                         ",
"                     01xx             t                         ",
"                    0 :h;             P                         ",
"                     1:ad            5S                         ",
"                      +bd-          00                          ",
"                       r*-         b7                           ",
"                       1h-         2                            ",
"                        yX     -  L7                            ",
"                        $a;*  -d* r                             ",
"                        uo$a%*a* Z0                             ",
"                          137aa-u0                              ",
"                            71q$0                               ",
"                             $$                                 ",
"                                                                ",
"                                                                ",
"                                                                ",
"                                                                ",
"                                                                ",
"                                                                ",
"                                                                ",
"                                                                ",
"                                                                ",
"                                                                ",
"                                                                ",
"                                                                "
};
