/* XPM */
static char *Portal101707327664[] = {
/* columns rows colors chars-per-pixel */
"64 64 65 1 ",
"  c #FFFFFF",
". c #33004B",
"X c #500450",
"o c #480069",
"O c #6D066D",
"+ c #6E066E",
"@ c #7C077D",
"# c #5C0087",
"$ c #670096",
"% c #7000A5",
"& c #7100A5",
"* c #7B00B4",
"= c #8A088A",
"- c #8A088B",
"; c #8A088C",
": c #98099A",
"> c #A60AA7",
", c #AA01AA",
"< c #A60AA8",
"1 c #B40BB5",
"2 c #B40BB6",
"3 c #8600C3",
"4 c #8E00D2",
"5 c #8F00D2",
"6 c #9000D2",
"7 c #9100D2",
"8 c #9400D2",
"9 c #9B00E1",
"0 c #9C00E1",
"q c #A300F0",
"w c #A700F0",
"e c #B000FF",
"r c #B100FF",
"t c #B200FF",
"y c #B500FF",
"u c #B00FFF",
"i c #B70FFF",
"p c #B90FFF",
"a c #BC1EFF",
"s c #BE2DFF",
"d c #BF2DFF",
"f c #C20CC4",
"g c #D00DD2",
"h c #EF1CF1",
"j c #C02DFF",
"k c #C12DFF",
"l c #C53CFF",
"z c #C63CFF",
"x c #CA4BFF",
"c c #CC4BFF",
"v c #CA5AFF",
"b c #CE5AFF",
"n c #F94DFB",
"m c #FA5CFB",
"M c #D069FF",
"N c #D269FF",
"B c #FA6BFB",
"V c #FA7AFB",
"C c #FB89FB",
"Z c #FB98FB",
"A c #FCA7FC",
"S c #FDB6FD",
"D c #FDC5FD",
"F c #FED4FE",
"G c white",
/* pixels */
"                                                                ",
"                                                                ",
"                                                                ",
"                                                                ",
"                                                                ",
"                                                                ",
"                                                                ",
"                                                                ",
"                                                                ",
"                                                                ",
"                            u M 7                               ",
"                           q4 q4*                               ",
"                          t     qw                              ",
"                                 &                              ",
"                        a         7                             ",
"                        &  :::   0  7                           ",
"                          nnn::   ww*                           ",
"                     a x  n:mZ::                                ",
"                       * ::VCACm<   3                           ",
"                        ::nZnnCmA::   &                         ",
"                        :2BS  mZmf:  7                          ",
"                       ::<Ag    mm:: w*                         ",
"                       :<2C     Dmm    3                        ",
"                       :22h     FVV                             ",
"                      *:gg      FCn  t &                        ",
"                      7:g:      mGnn                            ",
"                       :<:       Dmn                            ",
"                       2:         Gn                            ",
"                       <2          F   8                        ",
"                       <2                                       ",
"                       2<              p                        ",
"                       <<               k                       ",
"                      p<-               l                       ",
"                  0   t;-                                       ",
"                      cX-                                       ",
"                      *@:                                       ",
"                    0 3;-              l                        ",
"                      7>2              s                        ",
"                     00,@             a                         ",
"                  7  732O             y                         ",
"                     q7:O                                       ",
"                    t 3k#             b                         ",
"                     y7w.t           &b                         ",
"                      *377          qt                          ",
"                       tw0         k3                           ",
"                       70o         3                            ",
"                        t7      t M0                            ",
"                        $7*3300qt w                             ",
"                        t#3$0   *k0                             ",
"                          373yt0k&                              ",
"                            7 l q                               ",
"                             33                                 ",
"                                                                ",
"                                                                ",
"                                                                ",
"                                                                ",
"                                                                ",
"                                                                ",
"                                                                ",
"                                                                ",
"                                                                ",
"                                                                ",
"                                                                ",
"                                                                "
};
