/* XPM */
static char *Portal231707327666[] = {
/* columns rows colors chars-per-pixel */
"64 64 79 1 ",
"  c #FFFFFF",
". c black",
"X c #020003",
"o c #030005",
"O c #040005",
"+ c #050007",
"@ c gray3",
"# c #0C0012",
"$ c #0D0014",
"% c #0E0114",
"& c #100016",
"* c #14001E",
"= c #101010",
"- c #160021",
"; c #190123",
": c #210030",
"> c #230232",
", c #2B003F",
"< c #2C0041",
"1 c #2E0241",
"2 c #36004E",
"3 c #370050",
"4 c #380250",
"5 c #41005D",
"6 c #40005F",
"7 c #42025F",
"8 c #4C006C",
"9 c #4D026E",
"0 c #520078",
"q c #53007B",
"w c #57007B",
"e c #57027D",
"r c #5C0087",
"t c #61028C",
"y c #670099",
"u c #6B029B",
"i c #7100A5",
"p c #7502AA",
"a c #7602AA",
"s c #7B00B4",
"d c #8002B9",
"f c #B40BB6",
"g c #8500C3",
"h c #8600C3",
"j c #8A02C8",
"k c #8B02C8",
"l c #9000D2",
"z c #9100D2",
"x c #9402D7",
"c c #9602D7",
"v c #9A00E1",
"b c #9C00E1",
"n c #A102E6",
"m c #A300F0",
"M c #A700F0",
"N c #B200FF",
"B c #B30FFF",
"V c #B70FFF",
"C c #BC1EFF",
"Z c #BD1EFF",
"A c #BE1EFF",
"S c #C12DFF",
"D c #C22DFF",
"F c #C236FD",
"G c #C336FD",
"H c #C63CFF",
"J c #CA4BFF",
"K c #CE5AFF",
"L c #D369FF",
"P c #D778FF",
"I c #DC87FF",
"U c #E096FF",
"Y c #E5A5FF",
"T c #E9B4FF",
"R c #EDC3FF",
"E c #F2D2FF",
"W c #F6E1FF",
"Q c #FBF0FF",
"! c white",
/* pixels */
"                                                                ",
"                                                                ",
"                                                                ",
"                                                                ",
"                                                                ",
"                                                                ",
"                                                                ",
"                                                                ",
"                                                                ",
"                           NNN                                  ",
"                           NNNNNN                               ",
"                           CCCCNN                               ",
"                          VVN JJJN                              ",
"                         NSKSSCHCH                              ",
"                        VKJCVSGVSHV                             ",
"                      NNSKCVMbM CC  N                           ",
"                      NCJHLGvccb CKNN                           ",
"                     NNHLCGd5aMMSVHVN                           ",
"                     NNPSJad89uzbNNIN                           ",
"                     NCPVSdas-kuhMNCK V                         ",
"                     NHIJxs5559k1rbN VV                         ",
"                     VIH k84555ythMMHSS                         ",
"                    NCIV55555544a7zMV VC                        ",
"                    NCYPM52<558>55sNbS V                        ",
"                    N C n552<<4455zhNC V                        ",
"                   N SN ne5##>3855ubVC V                        ",
"                   NSCVKud5,9%>255eMLNSV                        ",
"                   NNCCJ>a,,=;;,55ebSN K                        ",
"                   N VVU51..2#:.>57MHC P                        ",
"                   N CSmet...u#>:59MJM L                        ",
"                   NVVHB9t....52.11zSbVJ                        ",
"                   CNV Vt4.+..%%-2ezSNCHS                       ",
"                  CV JHv95.....>,-8aSCMVH                       ",
"                  VV NLh.%..@..-:-5hCVMC                        ",
"                  SNNKJia...@...--9hSCvS                        ",
"                  SNNFJMk.*....>5:uhH MVS                       ",
"                   VVCYhc#..%.%2w-asJC UC                       ",
"                   HVIKHa8a.=...25dzKK C                        ",
"                  NVCJ Iba9..3o-25e0KHVC                        ",
"                  N VLPIMuee>2<#25ehKJCC                        ",
"                     CC!brd2..0>2-hMKVCN                        ",
"                    f S!IM5,,5,55-rCL N                         ",
"                     VHIQCz52,55,hMVHKM                         ",
"                      VPQUS5,552avHRKN                          ",
"                       VTLPN555klMPYN                           ",
"                       VLKJLktM vLEH                            ",
"                        VPWULJNSLCSS                            ",
"                        VVSLI W!LMC                             ",
"                        NJVLLKJN MVN                            ",
"                          NHPNNVVCN                             ",
"                            VTCMM                               ",
"                             NN                                 ",
"                                                                ",
"                                                                ",
"                                                                ",
"                                                                ",
"                                                                ",
"                                                                ",
"                                                                ",
"                                                                ",
"                                                                ",
"                                                                ",
"                                                                ",
"                                                                "
};
