/* XPM */
static char *Portal151707327665[] = {
/* columns rows colors chars-per-pixel */
"64 64 113 2 ",
"   c None",
".  c #140114",
"X  c #410341",
"o  c #510353",
"O  c #5F055F",
"+  c #6E066E",
"@  c #7B077B",
"#  c #7C077D",
"$  c #5C0087",
"%  c #670096",
"&  c #6C0096",
"*  c #7000A5",
"=  c #7100A5",
"-  c #7B00B4",
";  c #890889",
":  c #8A088B",
">  c #8A088C",
",  c #970997",
"<  c #9B049E",
"1  c #98099A",
"2  c #A50AA5",
"3  c #A704AD",
"4  c #A60AA8",
"5  c #B40BB6",
"6  c #B704BC",
"7  c #8300C3",
"8  c #8500C3",
"9  c #8600C3",
"0  c #9000D2",
"q  c #9100D2",
"w  c #9400D2",
"e  c #9900E1",
"r  c #9A00E1",
"t  c #9C00E1",
"y  c #9F00E1",
"u  c #A400F0",
"i  c #A700F0",
"p  c #A900F0",
"a  c #AD00FF",
"s  c #AE00FF",
"d  c #B200FF",
"f  c #B500FF",
"g  c #B30FFF",
"h  c #B70FFF",
"j  c #BA0FFF",
"k  c #BE0FFF",
"l  c #B81EFF",
"z  c #BA1EFF",
"x  c #BB1EFF",
"c  c #BC1EFF",
"v  c #BE1EFF",
"b  c #BC2DFF",
"n  c #BF2DFF",
"m  c #C20CC4",
"M  c #C604CB",
"N  c #D204DA",
"B  c #D504DA",
"V  c #DE0EE0",
"C  c #DE0CE9",
"Z  c #E404E9",
"A  c #F702F8",
"S  c #F304F8",
"D  c #F604F9",
"F  c #EF1CF1",
"G  c #EF1DF1",
"H  c #F610FB",
"J  c #F611FB",
"K  c #F811FB",
"L  c #F71FFB",
"P  c #C12DFF",
"I  c #C22DFF",
"U  c #C23CFF",
"Y  c #C43CFF",
"T  c #C53CFF",
"R  c #C63CFF",
"E  c #F820FB",
"W  c #F72FFB",
"Q  c #F82EFB",
"!  c #F82FFB",
"~  c #F138F3",
"^  c #F83EFB",
"/  c #FA3EFB",
"(  c #C64BFF",
")  c #C94BFF",
"_  c #CA4BFF",
"`  c #CE5AFF",
"'  c #F84DFB",
"]  c #F85CF8",
"[  c #FA5CFB",
"{  c #D269FF",
"}  c #D369FF",
"|  c #D778FF",
" . c #D878FF",
".. c #F86BF8",
"X. c #F879FB",
"o. c #FA7AFB",
"O. c #DC87FF",
"+. c #DD87FF",
"@. c #FB89FB",
"#. c #E096FF",
"$. c #E196FF",
"%. c #FA97FA",
"&. c #FB98FB",
"*. c #E9B4FF",
"=. c #FCB6FC",
"-. c #FDB6FD",
";. c #EDC3FF",
":. c #FDC5FD",
">. c #EFEFEF",
",. c #F6E1FF",
"<. c #FEE3FE",
"1. c #FFF2FF",
"2. c white",
/* pixels */
"                                                                                                                                ",
"                                                                                                                                ",
"                                                                                                                                ",
"                                                                                                                                ",
"                                                                                                                                ",
"                                                                                                                                ",
"                                                                                                                                ",
"                                                                                                                                ",
"                                                                                                                                ",
"                                                      c P )                                                                     ",
"                                                      i d Y { ` i                                                               ",
"                                                      q d f t Y `                                                               ",
"                                                        t   9 i ) +.                                                            ",
"                                                    d     q i d i i                                                             ",
"                                                  i i q q q t t 9 d Y                                                           ",
"                                                  % t t  .d t   i i     d                                                       ",
"                                                x q i 9 i Y i i   q     t                                                       ",
"                                              d 0 q - 9 d d | d d t   9                                                         ",
"                                              - t p q t t q d n h i t                                                           ",
"                                            r 9 9 d 9 r q q d j $.  =                                                           ",
"                                            - c p r d q 9 # # d `                                                               ",
"                                            q i   = p i 9 1 O d d c d   t -                                                     ",
"                                            c d p r 9 d d i + 1 d d d                                                           ",
"                                          - h d r i d d d d # # c - s h   =                                                     ",
"                                            c   9 i d d d d i . h d Y d                                                         ",
"                                      d   = P   t - $ - d d > # 9 d 9 )                                                         ",
"                                      d 9 t ` q i d t d d d t 5 X d d q )     q                                                 ",
"                                        - t h - q d h c j c Y , 1 - d t Y c                                                     ",
"                                          t ) i 9 h x d h c | h : % d q t 9                                                     ",
"                                      d   t h - c Y d j Y d q q V t d t t c                                                     ",
"                                      d q Y h d P P ) ,.d [ / q 5 4 d d t )   q                                                 ",
"                                        q x   t P P +.d [ -.:.9 F - d P q p   -                                                 ",
"                                          h h P R Y ;.1.<.:.@.d F @ i d i 0 i                                                   ",
"                                          x t x j } { :.2.:...L 2 , t t r $ i                                                   ",
"                                      c   i h #.c *.` :.2.2./ Q N O q i x 9 d                                                   ",
"                                      P   d h P h ( Y 2.2.2.=.X.3 : = i t g i                                                   ",
"                                            i Y c ` } X.:.&.W A Z ~ t h h t i   h                                               ",
"                                            l i i { R &.&.  C H ] ~ p h i x q                                                   ",
"                                    d       9 i d h f @.!     S J E r c i i                                                     ",
"                                    d       9 t h d f X.E     S ' i 9 P * i d                                                   ",
"                                            q d _ t d S W     Z < D p x x i t                                                   ",
"                                        >   d t d h d S >.B Z M J h   t s t                                                     ",
"                                            c % d O.- S Z o 6 S h h h h s h                                                     ",
"                                              t d x r c   m 6 h h h h d U P                                                     ",
"                                              x d d d q h S h h h h c w k                                                       ",
"                                              x t t d i d i h d i h _ & q                                                       ",
"                                                9 q t h d d i d   7 (                                                           ",
"                                                i   d i 9 d d t q n i                                                           ",
"                                                t   9 d q - f 7 r t                                                             ",
"                                                      q i   c t                                                                 ",
"                                                        i i p                                                                   ",
"                                                                                                                                ",
"                                                                                                                                ",
"                                                                                                                                ",
"                                                                                                                                ",
"                                                                                                                                ",
"                                                                                                                                ",
"                                                                                                                                ",
"                                                                                                                                ",
"                                                                                                                                ",
"                                                                                                                                ",
"                                                                                                                                ",
"                                                                                                                                ",
"                                                                                                                                "
};
