/* XPM */
static char *Portal261707327666[] = {
/* columns rows colors chars-per-pixel */
"64 64 90 1 ",
"  c #FFFFFF",
". c black",
"X c #050007",
"o c #100116",
"O c #160021",
"+ c #1A0125",
"@ c #240134",
"# c #2B003F",
"$ c #2F0143",
"% c #36004E",
"& c #370050",
"* c #41005D",
"= c #41005F",
"- c #4B006E",
"; c #56007D",
": c #60008C",
"> c #6A009B",
", c #6B009B",
"< c #6B029B",
"1 c #7400A8",
"2 c #7400AA",
"3 c #7600AA",
"4 c #7602AA",
"5 c #8100B9",
"6 c #8002B9",
"7 c #8A00C6",
"8 c #8B00C9",
"9 c #8B02C8",
"0 c #8C00C8",
"q c #9100D2",
"w c #9500D5",
"e c #9700D7",
"r c #9602D7",
"t c #9B00E2",
"y c #9F00E5",
"u c #A000E4",
"i c #A200E6",
"p c #A102E6",
"a c #A700F0",
"s c #AB00F3",
"d c #AA00F4",
"f c #AC02F5",
"g c #AC00F6",
"h c #B101FF",
"j c #B200FF",
"k c #B304FF",
"l c #B409FD",
"z c #B70FFF",
"x c #B912FF",
"c c #B818FD",
"v c #B918FD",
"b c #BB1FFF",
"n c #BC1EFF",
"m c #BE21FF",
"M c #BE27FD",
"N c #C12DFF",
"B c #C22DFF",
"V c #C230FF",
"C c #C231FF",
"Z c #C336FD",
"A c #C53DFF",
"S c #C63CFF",
"D c #C73FFF",
"F c #C740FF",
"G c #C845FD",
"H c #CA4BFF",
"J c #CA4CFF",
"K c #CB4EFF",
"L c #CB4FFF",
"P c #CC54FD",
"I c #CE5AFF",
"U c #CF5BFF",
"Y c #CF5DFF",
"T c #D063FD",
"R c #D369FF",
"E c #D46DFF",
"W c #D572FD",
"Q c #D778FF",
"! c #D97CFF",
"~ c #D981FD",
"^ c #DC87FF",
"/ c #DD8AFF",
"( c #DE90FD",
") c #E096FF",
"_ c #E097FF",
"` c #E29FFD",
"' c #EBBDFD",
"] c #EDC3FF",
"[ c #F6E1FF",
"{ c white",
/* pixels */
"                                                                ",
"                                                                ",
"                                                                ",
"                                                                ",
"                                                                ",
"                                                                ",
"                                                                ",
"                                                                ",
"                           j                                    ",
"                            A'WZ                                ",
"                           IIN  Cg   p                          ",
"                          ])    FsYm                            ",
"                        g[) zv7eK/pcmx                          ",
"                      p G/~jN3377mClMN                          ",
"                          Aj**3377CGvl                          ",
"                       T zjp3**330y7uKP                         ",
"                     p `jnj$3,3*3y37eN!                         ",
"                      (Hzjp$#*3337377pP!                        ",
"                    M (jnz>>**%3333377CA                        ",
"                    M (j5p3*****3;7y77yC                        ",
"                   l   z313****3*&30y7eCC                       ",
"                     PNnb33$****o-;73p7mC                       ",
"                    HQngj<:**$****,7337Cx                       ",
"                 x  I vJ-<:@O$$**$:3777mx                       ",
"                      vj::3@+*****-773xmxg                      ",
"                   {  M,3:$+@$***3**373CxC                      ",
"                p  /Rjvq5&$o$$*O**-*333mxF                      ",
"                   EACA53X@@$$%+**<**377mA                      ",
"                  (CCCp53Xo$$$@%**3**377y                       ",
"                  ]xpz99<;o+o$@%***;*377e                       ",
"                   pjzee-:oX++o****:*33xe                       ",
"                   pjj5<<:;oo+@$*****37xp                       ",
"                 N  jjx4<:++X+$$**3**37xy                       ",
"                  An jz,3:X..@$$*****37xC                       ",
"                 NF  jN;<:X$+$*$****737xCd                      ",
"                 Q   jzp::XX+$$****%737xCky                     ",
"                 xNj ga-:;XX$$$***3::37xCdy                     ",
"                      a3<*XX$$*$*;;1773x7                       ",
"                      Ma:-:X$$**#3<;773x7                       ",
"                     N y3:>>$$$3#*#<37xx  y                     ",
"                     MI5p<-<$*$##*;337x                         ",
"                    z AM3:<3#*#;31<73xx                         ",
"                      vl3e<3###3*;;7x3   k                      ",
"                       lN93<##3*;;;3x7                          ",
"                       vNje$3**;%;3xx                           ",
"                        Nn0$#3;777xx                            ",
"                        Azjj$3;733x                             ",
"                       JIJ jp$;;;3C                             ",
"                         )n j33330                              ",
"                         JNjj3p35C                              ",
"                         YJnjjj0J  3                            ",
"                           A Avjg 3x                            ",
"                              x   c                             ",
"                                                                ",
"                                 x                              ",
"                                                                ",
"                                                                ",
"                                                                ",
"                                                                ",
"                                                                ",
"                                                                ",
"                                                                ",
"                                                                ",
"                                                                "
};
