/* XPM */
static char *Portal171707327665[] = {
/* columns rows colors chars-per-pixel */
"64 64 53 1 ",
"  c #FFFFFF",
". c #1F002D",
"X c #33004B",
"o c #520078",
"O c #5C0087",
"+ c #670096",
"@ c #7100A5",
"# c #7B00B4",
"$ c #8500C3",
"% c #8600C3",
"& c #8900C3",
"* c #9000D2",
"= c #9100D2",
"- c #9C00E1",
"; c #A400F0",
": c #A700F0",
"> c #AA00F0",
", c #B100FF",
"< c #B200FF",
"1 c #B500FF",
"2 c #B10FFF",
"3 c #B60FFF",
"4 c #B70FFF",
"5 c #BA0FFF",
"6 c #BA1EFF",
"7 c #BB1EFF",
"8 c #BC1EFF",
"9 c #BE1EFF",
"0 c #BF2DFF",
"q c #C02DFF",
"w c #C12DFF",
"e c #C22DFF",
"r c #C43CFF",
"t c #C53CFF",
"y c #C63CFF",
"u c #C84BFF",
"i c #C94BFF",
"p c #CA4BFF",
"a c #CE5AFF",
"s c #D269FF",
"d c #D369FF",
"f c #D778FF",
"g c #D878FF",
"h c #DB87FF",
"j c #DC87FF",
"k c #DD87FF",
"l c #E096FF",
"z c #E5A5FF",
"x c #E9B4FF",
"c c #EDC3FF",
"v c #F2D2FF",
"b c #F6E1FF",
"n c white",
/* pixels */
"                                                                ",
"                                                                ",
"                                                                ",
"                                                                ",
"                                                                ",
"                                                                ",
"                                                                ",
"                                                                ",
"                                                                ",
"                           <<5                                  ",
"                           www<i<                               ",
"                           w8s1w<                               ",
"                          a4r <ir1                              ",
"                         8i<=-<-a<                              ",
"                        r6<8=%:=18:                             ",
"                      1r8r><<<= :4  <                           ",
"                      <88rw-r<@# : :<                           ",
"                      48<w4:<8=-%-  :                           ",
"                      888w8-5r-::#4 -                           ",
"                     i-<5--rw4 :=:@w  <                         ",
"                     i<w8<<w<<4#<8 8  <                         ",
"                     h:4 <56<-r-:<#%8<:                         ",
"                    4i<4<<w<:<5-=f:#- -                         ",
"                    4s1<w=w-<<i4-<=#%w                          ",
"                    <<6<>: 456<8::<-#<                          ",
"                     :68<:8<<<<8::=:-%                          ",
"                     -6a%w<<<<<<<:+<=%4                         ",
"                   4 6<-= <#8<<<<-<+4@:                         ",
"                   8%r:rf8<4-vw8<:*>6=<                         ",
"                    @5>rw<-8rvbw<<-s%#<                         ",
"                    <-14r6-vgalci<::<@<-                        ",
"                   :=%:w=58fbnxsi<-:8#-:<                       ",
"                  8::#4 =i:annnvl<::w1: <                       ",
"                   :-O4-4f=>nnjjj<::6wX                         ",
"                   %:%:<wa14s12zi<>:=8o                         ",
"                    @4>s8wraadxa8<:-88+ <                       ",
"                    -8@j8r<8ilxia<<-4+# <                       ",
"                    #8#ri8<81r<<<<==<%%                         ",
"                  a4=4@wr85:<<r<<<<:-:                          ",
"                  8  ===s6w<=<<<<<<o-<=                         ",
"                      +<a<r<<<<<<<<.:-#<                        ",
"                      =&g8p1<<<<<<-#-=<                         ",
"                     <#-s-8r<<<<<<%+4-                          ",
"                      >86<:8 <<<<<<%<#                          ",
"                       4j<-w<<<<<:=4<                           ",
"                       8whw<444 6-=<-                           ",
"                        4ri4<-><>o:                             ",
"                        >wiwa =#o                               ",
"                        44i    w <                              ",
"                          <  >                                  ",
"                            i                                   ",
"                                                                ",
"                                                                ",
"                                                                ",
"                                                                ",
"                                                                ",
"                                                                ",
"                                                                ",
"                                                                ",
"                                                                ",
"                                                                ",
"                                                                ",
"                                                                ",
"                                                                "
};
