/* XPM */
static char *Portal281707327667[] = {
/* columns rows colors chars-per-pixel */
"64 64 103 2 ",
"   c None",
".  c black",
"X  c #050007",
"o  c #100116",
"O  c #160021",
"+  c #1A0125",
"@  c #210030",
"#  c #240134",
"$  c #2B003F",
"%  c #2F0143",
"&  c #36004E",
"*  c #370050",
"=  c #41005D",
"-  c #41005F",
";  c #4B006E",
":  c #56007D",
">  c #60008C",
",  c #6A009B",
"<  c #6B009B",
"1  c #6B029B",
"2  c #7300AA",
"3  c #7400A8",
"4  c #7400AA",
"5  c #7600AA",
"6  c #7602AA",
"7  c #7F00B7",
"8  c #8100B9",
"9  c #8002B9",
"0  c #8A00C6",
"q  c #8B00C9",
"w  c #8B02C8",
"e  c #8C00C8",
"r  c #9100D2",
"t  c #9200D7",
"y  c #9500D5",
"u  c #9700D7",
"i  c #9602D7",
"p  c #9F00E5",
"a  c #9F02E6",
"s  c #A000E4",
"d  c #A200E6",
"f  c #A102E6",
"g  c #A700F0",
"h  c #AB00F3",
"j  c #AC02F5",
"k  c #AC00F6",
"l  c #B101FF",
"z  c #B200FF",
"x  c #B403FF",
"c  c #B304FF",
"v  c #B605FF",
"b  c #B409FD",
"n  c #B70FFF",
"m  c #B912FF",
"M  c #B818FD",
"N  c #B918FD",
"B  c #BB1FFF",
"V  c #BC1EFF",
"C  c #BE21FF",
"Z  c #BE27FD",
"A  c #C12DFF",
"S  c #C22DFF",
"D  c #C02EFF",
"F  c #C230FF",
"G  c #C231FF",
"H  c #C530FF",
"J  c #C336FD",
"K  c #C63CFF",
"L  c #C43FFF",
"P  c #C73FFF",
"I  c #C740FF",
"U  c #C845FD",
"Y  c #CA4BFF",
"T  c #CA4CFF",
"R  c #CB4EFF",
"E  c #CE5AFF",
"W  c #CF5BFF",
"Q  c #CF5DFF",
"!  c #CD63FD",
"~  c #D063FD",
"^  c #D369FF",
"/  c #D46CFF",
"(  c #D772FD",
")  c #D778FF",
"_  c #D87BFF",
"`  c #D97CFF",
"'  c #DC87FF",
"]  c #DE8AFF",
"[  c #DA8CFF",
"{  c #E096FF",
"}  c #E199FF",
"|  c #E5A5FF",
" . c #E6A8FF",
".. c #E9B4FF",
"X. c #EAB7FF",
"o. c gray81",
"O. c #EDC3FF",
"+. c #EEC6FF",
"@. c #EFC7FF",
"#. c #F2D2FF",
"$. c #F3D5FF",
"%. c gray97",
"&. c white",
/* pixels */
"                                                                                                                                ",
"                                                                                                                                ",
"                                                                                                                                ",
"                                                                                                                                ",
"                                                                                                                                ",
"                                                                                                                                ",
"                                                                                                                                ",
"                                                                                                                                ",
"                                                                                                                                ",
"                                                    C               m                                                           ",
"                                                          N m m     m                                                           ",
"                                              V           Z j m m 0                                                             ",
"                                                f P     n ~ 0 8 m m 0 f                                                         ",
"                                                    J P ..w 5 0 0 m y f   z                                                     ",
"                                            m     f K E n z 5 5 0 0 m 0       m                                                 ",
"                                          m m   f E ) z z z 5 5 5 0   F 7                                                       ",
"                                            m U K K z z z 1 = 5 5 0 0 0 F 5                                                     ",
"                                        m   Z   P Y z z $ = : $ 5 0 0 0 0 m                                                     ",
"                                        N   J E A V z , = = & : > 5 0 0 0 m m                                                   ",
"                                        F   ~ E n z 5 = = = = @ 5 5 0 p 0 F F                                                   ",
"                                        ^   E P 7 , 5 = = = = 5 > 5 $ 0 p p m                                                   ",
"                                      F / x h y B 5 5 % = + = = O > > > w p m F                                                 ",
"                                        Q Q n k l 1 > = = % = = = $ 1 > 0     F                                                 ",
"                                      P T I k T ; 1 X X O % % = = $ > > 0 0   C   F m                                           ",
"                                      &._ A k z > > X # + = = = = = ; 5 0 5   F   F                                             ",
"                                      @.      1 5 > X + # % = = = 5 O 5 0 >   C m     z                                         ",
"                                      $.    N r 8 X % o % % = O = = ; 1 5 > 0 F m                                               ",
"                                      }     P 8 5 X # + + + & + = = 1 $ $ > 0 m C I                                             ",
"                                Y     ` V z d 8 X X o + + % # & = = 5 = > > 0 0 c I                                             ",
"                                A   X.  z n w w 1 X o + + + # & = = = : 5 > 0 0 p F     N                                       ",
"                                      E m m y i ; X o X + + o = = = = > 5 0 0   p       M                                       ",
"                                      _ m z 8 1 1 5 : o o + # % = + = $ 1 5 > m p                                               ",
"                                    _ }   z m 5 1 > + + X + % % = = 7 1 > 5 > m m F                                             ",
"                                    T _ m z n 1 6 , : . . @ % % = = * 1 1 $ > m m C                                             ",
"                                    } / P z A : 1 > . % + % = % + = = % > $ > m m C                                             ",
"                                N   &.P T z n f > ; 1 # + % % = = = = & 1 5 0 m m I                                             ",
"                                    | ` I C g ; > : , o % % % = = = * > > 5 0 m I C                                             ",
"                                N m   _ Q b m 5 1 ; 1 * % % = % + = 7 3 5 0 5 m F m   m                                         ",
"                                      ` _ C C h > ; > 6 % % = + + = 1 : 5 0 5 m T m   m                                         ",
"                                        T ^ j f 6 > 1 1 % % + + = = $ $ 5 > m m F                                               ",
"                                          I T e f 1 ; 1 % = + = = = : 5 > m m   f                                               ",
"                                          P Q k 6 > 1 6 % = = = = 3 1 > 5 m m                                                   ",
"                                        ^ #.T P 5 y 1 5 $ = = = = 3 5 > m 5                                                     ",
"                                          @.)   A w 5 , 5 = = = 7 $ 5 > m I                                                     ",
"                                            @.^ n n y % 5 = = & & 1 5 m C                                                       ",
"                                              ' n V f % 5 5 = 0 > > m C           N                                             ",
"                                                { z n n % 5 5 > > 5 A                                                           ",
"                                                  Y V n f % 5 5 > f T                                                           ",
"                                                  { A P Y 5 > > t 2   I                                                         ",
"                                                    E A Y x f v H %.                                                            ",
"                                                      E &.P { [ ]                                                               ",
"                                                      ) | o.!                                                                   ",
"                                                        (                                                                       ",
"                                                                                                                                ",
"                                                                                                                                ",
"                                                          z                                                                     ",
"                                                                                                                                ",
"                                                                                                                                ",
"                                                                                                                                ",
"                                                                                                                                ",
"                                                                                                                                ",
"                                                                                                                                ",
"                                                                                                                                ",
"                                                                                                                                "
};
