/* XPM */
static char *Portal111707327664[] = {
/* columns rows colors chars-per-pixel */
"64 64 80 1 ",
"  c #FFFFFF",
". c #3D005A",
"X c #500450",
"o c #480069",
"O c #520078",
"+ c #6E066E",
"@ c #5C0087",
"# c #5D0087",
"$ c #670096",
"% c #680096",
"& c #7000A5",
"* c #7100A5",
"= c #7300A5",
"- c #7B00B4",
"; c #7E00B4",
": c #8A088C",
"> c #98099A",
", c #A60AA8",
"< c #B40BB6",
"1 c #8500C3",
"2 c #8600C3",
"3 c #8900C3",
"4 c #8F00D2",
"5 c #9100D2",
"6 c #9400D2",
"7 c #9900E1",
"8 c #9A00E1",
"9 c #9C00E1",
"0 c #A300F0",
"q c #A700F0",
"w c #B200FF",
"e c #B500FF",
"r c #B20FFF",
"t c #B30FFF",
"y c #B70FFF",
"u c #B81EFF",
"i c #BC1EFF",
"p c #BE1EFF",
"a c #BA2DFF",
"s c #C20CC4",
"d c #C904CC",
"f c #D00DD2",
"g c #D804DB",
"h c #DE0EE0",
"j c #E604E9",
"k c #E704EA",
"l c #EC0FEE",
"z c #F504F8",
"x c #F604F9",
"c c #EF1CF1",
"v c #F811FB",
"b c #C12DFF",
"n c #C03CFF",
"m c #C63CFF",
"M c #F720FB",
"N c #F820FB",
"B c #F72FFB",
"V c #F82FFB",
"C c #F83EFB",
"Z c #C64BFF",
"A c #CA4BFF",
"S c #CE5AFF",
"D c #F94DFB",
"F c #F85CFB",
"G c #FA5CFB",
"H c #D069FF",
"J c #D778FF",
"K c #FA6BFB",
"L c #FA7AFA",
"P c #FA7AFB",
"I c #FB89FB",
"U c #E096FF",
"Y c #FB98FB",
"T c #E5A5FF",
"R c #FCA7FC",
"E c #FDB6FD",
"W c #FDC5FD",
"Q c #FED4FE",
"! c #F6E1FF",
"~ c white",
/* pixels */
"                                                                ",
"                                                                ",
"                                                                ",
"                                                                ",
"                                                                ",
"                                                                ",
"                                                                ",
"                                                                ",
"                                                                ",
"                           q $                                  ",
"                             2%9&                               ",
"                                #                               ",
"                          q      -                              ",
"                                                                ",
"                                                                ",
"                                5#  #                           ",
"                      2  =  i    @2                             ",
"                            ,>,<w#25                            ",
"                          >f, A>,2 2                            ",
"                       6  >b   cc>$   5                         ",
"                          fh   ,<>2                             ",
"                     #3  wf<   xs,Xe%                           ",
"                      9  <h     x<:4%  2                        ",
"                     o  bf,     fC<w;3                          ",
"                        l5s     sDNM#& 6                        ",
"                   5    #&       VY,gm .                        ",
"                   $   J2&       DKP+N&q                        ",
"                       b&-       CPg<d ;                        ",
"                       5#5       DKx<v $                        ",
"                       2%        WPx<v $                        ",
"                       2&        IDx,vq.                        ",
"                       O2        EExVvq&w                       ",
"                  2  q722        KIxgN9&2                       ",
"                  q  2;2%        IKxjv5                         ",
"                  w -#i5&        PYgxkq                         ",
"                  5 &-555        KPxv                           ",
"                    ;o&55        hRjN9                          ",
"                    95$55        hKCv  #                        ",
"                  5 75 y5        fFx   m                        ",
"                  2 $-255        hDv   y                        ",
"                     2255         VN   7                        ",
"                    w 25U        FYV  Z5                        ",
"                     w$$S        WP  9-                         ",
"                      q-w        ~N  &2                         ",
"                       29       QWv r05                         ",
"                       qb       ~Y mH-                          ",
"                        i      ~EK n 5                          ",
"                        b7     IV rZ                            ",
"                        wq-S   N u!                             ",
"                          9qT   7a                              ",
"                            9q q!                               ",
"                                                                ",
"                                                                ",
"                                                                ",
"                                                                ",
"                                                                ",
"                                                                ",
"                                                                ",
"                                                                ",
"                                                                ",
"                                                                ",
"                                                                ",
"                                                                ",
"                                                                "
};
