/* XPM */
static char *Portal211707327666[] = {
/* columns rows colors chars-per-pixel */
"64 64 59 1 ",
"  c #FFFFFF",
". c black",
"X c #050007",
"o c #0D0014",
"O c #100116",
"+ c #180023",
"@ c #1B0225",
"# c #220032",
"$ c #260333",
"% c #2C0041",
"& c #310441",
"* c #370050",
"= c #40005F",
"- c #41005F",
"; c #480069",
": c #4A006E",
"> c #4B006E",
", c #55007D",
"< c #56007D",
"1 c #5C0087",
"2 c #5F008C",
"3 c #60008C",
"4 c #670096",
"5 c #6A009B",
"6 c #6B009B",
"7 c #7100A5",
"8 c #7200AA",
"9 c #7400AA",
"0 c #7600AA",
"q c #7B00B4",
"w c #98099A",
"e c #8600C3",
"r c #9100D2",
"t c #9900E1",
"y c #9B00E1",
"u c #9C00E1",
"i c #9C00E6",
"p c #A700F0",
"a c #AD00FF",
"s c #AE05FF",
"d c #B200FF",
"f c #B70FFF",
"g c #BC1EFF",
"h c #C02DFF",
"j c #C12DFF",
"k c #C22DFF",
"l c #C53CFF",
"z c #C63CFF",
"x c #CA4BFF",
"c c #CE5AFF",
"v c #D369FF",
"b c #D778FF",
"n c #B7B7B7",
"m c #DC87FF",
"M c #E096FF",
"N c #E5A5FF",
"B c #EDC3FF",
"V c #F2D2FF",
"C c white",
/* pixels */
"                                                                ",
"                                                                ",
"                                                                ",
"                                                                ",
"                                                                ",
"                                                                ",
"                                                                ",
"                                                                ",
"                                                                ",
"                                                                ",
"                             d                                  ",
"                             d     d                            ",
"                              dddd                              ",
"                            dddpdd                              ",
"                          dppidddd                              ",
"                      dd drurp1 pr                              ",
"                      d pudddrre prd                            ",
"                      d pddddduuududd                           ",
"                     d dpddddddprrpud                           ",
"                       duddddd pdprrd                           ",
"                      ddddddddpduuuu                            ",
"                     ddd dderrrapdpur d                         ",
"                    dddpdddpgprepuuuu dd                        ",
"                     dpddvvddddpuppduu d                        ",
"                      p ff 6ddddurepre                          ",
"                   d du fvg-,63rdurde0                          ",
"                   dddpdva<>+,,pppeddd                          ",
"                   dduzdC->O62;,rueddd                          ",
"                   d pdpM-XOO0<;<dreud d                        ",
"                   d uuMVsOX.%*#>peppd                          ",
"                 d ddppCMi@$&.*<&drupd                          ",
"                    du Cf>oX...3*repud  d                       ",
"                  d  ppbz8....@X-puupd  d                       ",
"                  d  urVx6..O.X.+pppudp                         ",
"                    dpuBd<..Oz.d*epppdp                         ",
"                    duexc>>OO.X6-r4pp                           ",
"                    dpqxb8o<p%3y*urpuu dd                       ",
"                   dddpxmi#%*.-o3puppp                          ",
"                  dddd kvz**..+<quppud                          ",
"                  d ddddzgrkn%dprdepud                          ",
"                     ddpfdzdfperudpudu                          ",
"                    w duuddNkfpdudpud                           ",
"                  d  dddududddpepq4u dd                         ",
"                      ddd1dp dppp4pu d                          ",
"                       ddeuddpdd7urd                            ",
"                       ddpppuuu drdd                            ",
"                    d   ddpupurqudd                             ",
"                    dd  ddduruequd                              ",
"                        dddd;4uddd d                            ",
"                          dppdd  dd                             ",
"                              dd                                ",
"                             dd d                               ",
"                                                                ",
"                                                                ",
"                                                                ",
"                                                                ",
"                                                                ",
"                                                                ",
"                                                                ",
"                                                                ",
"                                                                ",
"                                                                ",
"                                                                ",
"                                                                "
};
