/* XPM */
static char *Portal071707327664[] = {
/* columns rows colors chars-per-pixel */
"64 64 50 1 ",
"  c #FFFFFF",
". c #5C0087",
"X c #670096",
"o c #7000A5",
"O c #7100A5",
"+ c #7B00B4",
"@ c #7E00B4",
"# c #98099A",
"$ c #B40BB6",
"% c #8600C3",
"& c #8F00D2",
"* c #9100D2",
"= c #9400D2",
"- c #9A00E1",
"; c #9B00E1",
": c #9C00E1",
"> c #A200F0",
", c #A700F0",
"< c #AF00FF",
"1 c #B000FF",
"2 c #B200FF",
"3 c #B70FFF",
"4 c #B81EFF",
"5 c #BA1EFF",
"6 c #BB1EFF",
"7 c #C20CC4",
"8 c #D00DD2",
"9 c #DE0EE0",
"0 c #F604F9",
"q c #F811FB",
"w c #C12DFF",
"e c #C42DFF",
"r c #C53CFF",
"t c #C93CFF",
"y c #F820FB",
"u c #F82FFB",
"i c #F83EFB",
"p c #C94BFF",
"a c #CD4BFF",
"s c #CE5AFF",
"d c #D15AFF",
"f c #F94DFB",
"g c #FA5CFB",
"h c #D369FF",
"j c #D778FF",
"k c #FA6BFB",
"l c #FA7AFB",
"z c #FB98FB",
"x c #FCA7FC",
"c c #FDC5FD",
/* pixels */
"                                                                ",
"                                                                ",
"                                                                ",
"                                                                ",
"                                                                ",
"                                                                ",
"                                                                ",
"                                                                ",
"                                                                ",
"                                                                ",
"                            *X.%%                               ",
"                           ,+5+*,                               ",
"                          :+    ::                              ",
"                          o,     +                              ",
"                                 %%                             ",
"                        +        :% :                           ",
"                        *        **o:                           ",
"                        +           o                           ",
"                      2             X                           ",
"                       :              o                         ",
"                                     .:                         ",
"                                     X:                         ",
"                      .                *                        ",
"                     :<                ,                        ",
"                     %               2 %                        ",
"                                                                ",
"                     X                                          ",
"                     *                                          ",
"                                       -                        ",
"                                       <                        ",
"                    o                  -                        ",
"                                       t2                       ",
"                   +                   da                       ",
"                   5                                            ",
"                 j>                                             ",
"                  *                                             ",
"                                       r                        ",
"                                       6                        ",
"                     #                =p                        ",
"                    22  f             e                         ",
"                     hsfg             7                         ",
"                       yz             #                         ",
"                     23wx            7#                         ",
"                     22qcy          $#                          ",
"                       qul         8#                           ",
"                       2yk         $                            ",
"                        qy       q9#                            ",
"                        0yzi     q#                             ",
"                        00yux   y##                             ",
"                          000kiu0##                             ",
"                            00u$#                               ",
"                             2#                                 ",
"                                                                ",
"                                                                ",
"                                                                ",
"                                                                ",
"                                                                ",
"                                                                ",
"                                                                ",
"                                                                ",
"                                                                ",
"                                                                ",
"                                                                ",
"                                                                "
};
