/* XPM */
static char *Portal161707327665[] = {
/* columns rows colors chars-per-pixel */
"64 64 70 1 ",
"  c #FFFFFF",
". c #1F002D",
"X c #33004B",
"o c #480069",
"O c #520078",
"+ c #5C0087",
"@ c #670096",
"# c #7100A5",
"$ c #7300A5",
"% c #7B00B4",
"& c #8500C3",
"* c #8600C3",
"= c #8900C3",
"- c #9000D2",
"; c #9100D2",
": c #9A00E1",
"> c #9C00E1",
", c #9F00E1",
"< c #A300F0",
"1 c #A400F0",
"2 c #A600F0",
"3 c #A700F0",
"4 c #AA00F0",
"5 c #AF00FF",
"6 c #B000FF",
"7 c #B100FF",
"8 c #B200FF",
"9 c #B500FF",
"0 c #B50FFF",
"q c #B60FFF",
"w c #B70FFF",
"e c #BA0FFF",
"r c #B71EFF",
"t c #BA1EFF",
"y c #BB1EFF",
"u c #BC1EFF",
"i c #BE1EFF",
"p c #BF2DFF",
"a c #D404DA",
"s c #C02DFF",
"d c #C12DFF",
"f c #C22DFF",
"g c #C43CFF",
"h c #C53CFF",
"j c #C63CFF",
"k c #F820FB",
"l c #F83EFB",
"z c #C94BFF",
"x c #CA4BFF",
"c c #CD5AFF",
"v c #CE5AFF",
"b c #D05AFF",
"n c #FA5CFB",
"m c #D269FF",
"M c #D369FF",
"N c #D469FF",
"B c #D678FF",
"V c #D778FF",
"C c #FA7AFB",
"Z c #DB87FF",
"A c #DC87FF",
"S c #FB89FB",
"D c #E196FF",
"F c #E5A5FF",
"G c #FCB5FC",
"H c #FDC5FD",
"J c #F2D2FF",
"K c #FED4FE",
"L c gray97",
"P c white",
/* pixels */
"                                                                ",
"                                                                ",
"                                                                ",
"                                                                ",
"                                                                ",
"                                                                ",
"                                                                ",
"                                                                ",
"                                                                ",
"                           88w                                  ",
"                           fff8x8                               ",
"                           fyM8f8                               ",
"                          x3f >xg8                              ",
"                         >xy%3w>cu                              ",
"                        uwg=#;*8iu8                             ",
"                      8uey;w3** 9u  8                           ",
"                      8ufwg84:@: > 88                           ",
"                      uu%eg-38*;*u  8                           ",
"                      ww>f>;8u;4*8w 8                           ",
"                     M88:4*gfw >*>*3  8                         ",
"                     cu4;88f88w#3u 8  8                         ",
"                     Z>; :wu8>g>%8*3;88                         ",
"                    4c%;84f848w>*M8>* 8                         ",
"                    8cu*e:f:88xw:*3;%w                          ",
"                    8>w*w3 wey8u4:88#u                          ",
"                     w:#w3u8888y33%3*8                          ",
"                     wxg:f8Affw883@3;;w                         ",
"                   8 pf*; wrcgcyw>3@w*3                         ",
"                   w>gwpVxy8>JeVNg%:8:;                         ",
"                    >f8ef88wwFcuug3p%;>                         ",
"                    83f;g88MynHVjb833*48                        ",
"                   8;<>88e8gSPCcgu33w%388                       ",
"                  u8>3; 8w;uSklKxe38w9y 8                       ",
"                   3>*@:8uwuGkPPV338wf@                         ",
"                   383%8gef3PPnNcue3#u*                         ",
"                    >8#Myw>8faNgx88:8u; 8                       ",
"                    3>ODwpLM8gNcxfw*8%; 8                       ",
"                    %3#xx8w3N>Ne3w>o>8;                         ",
"                  xw33#xewwwgcu8888@3w                          ",
"                  w  #:85yf8;88888%X8u;                         ",
"                      #8y8g8888888%.u>@8                        ",
"                      ;>Nux8888883%#w*8                         ",
"                     8*;c3ug88888-%o8*                          ",
"                      *fw33u 888:8338%                          ",
"                       8c+3w488>3;;w8                           ",
"                       4yVfw8;@ 88;8>                           ",
"                        yfy88%@88%3                             ",
"                        w3y38 8+%                               ",
"                        www    g 8                              ",
"                          >  3                                  ",
"                            x                                   ",
"                                                                ",
"                                                                ",
"                                                                ",
"                                                                ",
"                                                                ",
"                                                                ",
"                                                                ",
"                                                                ",
"                                                                ",
"                                                                ",
"                                                                ",
"                                                                ",
"                                                                "
};
