/* XPM */
static char *Portal181707327665[] = {
/* columns rows colors chars-per-pixel */
"64 64 44 1 ",
"  c #FFFFFF",
". c black",
"X c #100116",
"o c #14001E",
"O c #282828",
"+ c #33004B",
"@ c #3D005A",
"# c #480069",
"$ c #5C0087",
"% c #670096",
"& c #7100A5",
"* c #7E0BA3",
"= c #7B00B4",
"- c #A60AA8",
"; c #8600C3",
": c #9000D2",
"> c #9100D2",
", c #9400D2",
"< c #9A00E1",
"1 c #9C00E1",
"2 c #A600F0",
"3 c #A700F0",
"4 c #B200FF",
"5 c #B500FF",
"6 c #B70FFF",
"7 c #BA1EFF",
"8 c #BC1EFF",
"9 c #BE1EFF",
"0 c #C12DFF",
"q c #C22DFF",
"w c #C53CFF",
"e c #C63CFF",
"r c #C94BFF",
"t c #CA4BFF",
"y c #CE5AFF",
"u c #D369FF",
"i c #D469FF",
"p c #D778FF",
"a c gray72",
"s c #E096FF",
"d c #E5A5FF",
"f c #E8B4FF",
"g c #FBF0FF",
"h c white",
/* pixels */
"                                                                ",
"                                                                ",
"                                                                ",
"                                                                ",
"                                                                ",
"                                                                ",
"                                                                ",
"                                                                ",
"                                                                ",
"                           636                                  ",
"                           648344                               ",
"                           868=14                               ",
"                          648 1134                              ",
"                         333443:43                              ",
"                        8844611=44$                             ",
"                      4y6434134 =4  4                           ",
"                      6y643444,6 3344                           ",
"                     38q114613863=434                           ",
"                     q6t44164:q64=314                           ",
"                     46q146441 643134 4                         ",
"                     48q63e44448441: 4                          ",
"                     4p3 6y84481443&44                          ",
"                    84y:488844q<44:1  44                        ",
"                     4414468448:35313  4                        ",
"                     431=6 :4363=44;14                          ",
"                     4= 13458:84:::;344                         ",
"                     4;144433614533@344                         ",
"                   84;:3y3644814133&:44                         ",
"                    431484433364;41:=444                        ",
"                   q413784644:e4343:;444                        ",
"                   843 q8y4443;44453:444                        ",
"                    41 8ey4;o.4444=;;44 4                       ",
"                  e 11487q6:.XX4445::34 4                       ",
"                  e :3e6q4g+:XO*641:4=4                         ",
"                   4116864hhs8a4441%4=4                         ",
"                  e4:36y8dqhhhqy443;1 4 4                       ",
"                   4318d87qeu886e43=1   4                       ",
"                    148peqt66y4e45:=:;                          ",
"                  4888 ptq8q448844:31;5                         ",
"                  6 448t4q7t448884=33:4                         ",
"                     qqqqq76tee464:13=4                         ",
"                    - 76uqq7448483:33 4                         ",
"                     635t676844631:5335                         ",
"                      6eyq86 644q3=4:4                          ",
"                       6qeq7864373;4:                           ",
"                       q3eqq841 4414                            ",
"                       y4883ti444#31                            ",
"                       64888q 441;:3                            ",
"                        66:q:343 &3                             ",
"                           87f344+4                             ",
"                             34                                 ",
"                                                                ",
"                                                                ",
"                                                                ",
"                                                                ",
"                                                                ",
"                                                                ",
"                                                                ",
"                                                                ",
"                                                                ",
"                                                                ",
"                                                                ",
"                                                                ",
"                                                                "
};
