/* XPM */
static char *Portal251707327666[] = {
/* columns rows colors chars-per-pixel */
"64 64 104 2 ",
"   c None",
".  c black",
"X  c #050007",
"o  c #100116",
"O  c #160021",
"+  c #1A0125",
"@  c #210030",
"#  c #240134",
"$  c #2B003F",
"%  c #2F0143",
"&  c #36004E",
"*  c #370050",
"=  c #41005D",
"-  c #41005F",
";  c #4B006E",
":  c #56007D",
">  c #60008C",
",  c #6A009B",
"<  c #6B009B",
"1  c #6B029B",
"2  c #7400A8",
"3  c #7400AA",
"4  c #7600AA",
"5  c #7602AA",
"6  c #7F00B7",
"7  c #8100B9",
"8  c #8002B9",
"9  c #8900C7",
"0  c #8A00C6",
"q  c #8B00C9",
"w  c #8B02C8",
"e  c #8C00C8",
"r  c #9100D2",
"t  c #9500D5",
"y  c #9700D7",
"u  c #9602D7",
"i  c #9B00E2",
"p  c #9F00E5",
"a  c #A000E4",
"s  c #A200E6",
"d  c #A102E6",
"f  c #A700F0",
"g  c #AB00F3",
"h  c #AC02F5",
"j  c #AC00F6",
"k  c #B101FF",
"l  c #B200FF",
"z  c #B403FF",
"x  c #B404FF",
"c  c #B409FD",
"v  c #B70FFF",
"b  c #B912FF",
"n  c #B818FD",
"m  c #B918FD",
"M  c #BB1FFF",
"N  c #BC1EFF",
"B  c #BE21FF",
"V  c #BD27FD",
"C  c #BE27FD",
"Z  c #C12DFF",
"A  c #C22DFF",
"S  c #C02EFF",
"D  c #C230FF",
"F  c #C231FF",
"G  c #C236FD",
"H  c #C336FD",
"J  c #C53DFF",
"K  c #C63CFF",
"L  c #C73FFF",
"P  c #C740FF",
"I  c #C746FD",
"U  c #CA4BFF",
"Y  c #CA4CFF",
"T  c #CB4EFF",
"R  c #CB4FFF",
"E  c #CB50FF",
"W  c #CE5AFF",
"Q  c #CF5BFF",
"!  c #CF5DFF",
"~  c #D05EFF",
"^  c #D063FD",
"/  c #D36AFF",
"(  c #D46CFF",
")  c #D572FD",
"_  c #D778FF",
"`  c #D879FF",
"'  c #D87BFF",
"]  c #DD8AFF",
"[  c #DD8BFF",
"{  c #E096FF",
"}  c #E097FF",
"|  c #E199FF",
" . c #E5A5FF",
".. c #E5A6FF",
"X. c #E6A8FF",
"o. c #E6A9FF",
"O. c #EAB7FF",
"+. c #EDC3FF",
"@. c #EFC7FF",
"#. c #F2D3FF",
"$. c #F6E1FF",
"%. c #F7E4FF",
"&. c #FBF0FF",
"*. c white",
/* pixels */
"                                                                                                                                ",
"                                                                                                                                ",
"                                                                                                                                ",
"                                                                                                                                ",
"                                                                                                                                ",
"                                                                                                                                ",
"                                                                                                                                ",
"                                                                                                                                ",
"                                                      l Y N d d                                                                 ",
"                                                    N v l V m c m                                                               ",
"                                                    l v   m b b d d                                                             ",
"                                              N   v v     Z j b b 0 d       d                                                   ",
"                                                d L     v m 0 6 b b 0 p                                                         ",
"                                              b d l H l Z 4 4 0 0 b y d d                                                       ",
"                                            b b d d l l % 4 4 4 0 0 b 0                                                         ",
"                                          b b d d l l d 4 4 4 4 4 w p D 6   d                                                   ",
"                                            b d l l l % 4 < = 4 4 p 4 0 D 4                                                     ",
"                                        b   d   l l d % $ = : 4 4 0 4 0 0 b                                                     ",
"                                        m   d l l v , , = = & : 4 4 0 0 0 b b   c d                                             ",
"                                        b   d l 4 d 4 = = = = @ 4 4 0 p 0 D D                                                   ",
"                                        l   l l 6 , 4 = = = = 4 > 4 4 0 p p b p                                                 ",
"                                      b l d l l M 4 4 % = = = = O > 4 0 w p D b                                                 ",
"                                        l   l j k 1 > = = % = = = > 1 0 0 p p E m                                               ",
"                                        l b d Y ; 1 > # O % % = = $ > 4 0 0 0 D p                                               ",
"                                        b l h l > > 4 # + = + + = = ; 4 0 4 b b x                                               ",
"                                      L   l V 1 4 > % + # % = = = 4 O 4 0 0 b b p                                               ",
"                                      D l l m r 7 * % o % % = O = = ; 1 4 4 0 b   b                                             ",
"                                      P l l L 7 4 X # # + + & + = = 1 > 4 4 0 b 0   b                                           ",
"                                U   m Y     d 7 4 X o % % % + & = = 4 = 4 4 0 b p   g                                           ",
"                                Z   N D   b w w 1 : o + o % # & = = = : 4 4 0 b p   d                                           ",
"                                      ) l v y y ; > o X + + o = = = = > 4 0 4 b p                                               ",
"                                      ^ l l 7 1 1 3 : o o + # + = = = $ 1 4 0 b p                                               ",
"                                        l l v 4 1 > + + X + % % = = 4 1 > 4 0 b p                                               ",
"                                    o.&.l l v 1 4 1 : . . # % % = = = 1 1 4 0 b ~                                               ",
"                                    ! } l l Z : 1 > . % + % = % = = = $ > 4 0 Y o.                                              ",
"                                      *.l l v d > ; 1 # + + % + = = = & 1 4 0 D @.                                              ",
"                                      &.N j f ; > : , + % % % = = = = > > 4 y Y [   z                                           ",
"                                      &.  h f 4 1 = , * % % = % = = 4 2 4 0 7 ( z                                               ",
"                                      $.  L d g > ; > 4 % + = = = = 1 : 4 0 d _ g                                               ",
"                                    b     _ d i 4 > < , % % % = = = $ 1 4 0 [ O.  B                                             ",
"                                          V Y 4 d 1 ; 1 % = % = = = : 4 4 0 L   b d                                             ",
"                                        *.  ~ d 4 > 1 4 $ = = = = 2 1 4 4 b '   d                                               ",
"                                        *.  I l 4 y 1 4 $ = = = = 2 4 4 b d     0                                               ",
"                                            ( b l w 4 1 4 = = = 6 $ 4 4 b b                                                     ",
"                                            Q U l l y % 4 = = & & 1 4 b ( |                                                     ",
"                                            Q _ M l w % 4 4 = 0 : 4 b L L                                                       ",
"                                              #.Z M l l % 4 4 0 4 4 b ! %.                                                      ",
"                                              *.U L l l d % 4 4 4 4 L                                                           ",
"                                                ..Q L l l 4 4 4 4 7   O.                                                        ",
"                                                  _ / M l 4 d 4 b !     7                                                       ",
"                                                    }   M l l 7 !     j d                                                       ",
"                                                          Y H +.H                                                               ",
"                                                        ..O.|                                                                   ",
"                                                                                                                                ",
"                                                                                                                                ",
"                                                                                                                                ",
"                                                                                                                                ",
"                                                                                                                                ",
"                                                                                                                                ",
"                                                                                                                                ",
"                                                                                                                                ",
"                                                                                                                                ",
"                                                                                                                                ",
"                                                                                                                                "
};
