/* XPM */
static char *Portal131707327665[] = {
/* columns rows colors chars-per-pixel */
"64 64 88 1 ",
"  c #FFFFFF",
". c #230123",
"X c #29003C",
"o c #320232",
"O c #410341",
"+ c #500450",
"@ c #5F055F",
"# c #480069",
"$ c #510078",
"% c #520078",
"& c #7C077D",
"* c gray44",
"= c #5C0087",
"- c #660096",
"; c #670096",
": c #7000A5",
"> c #7100A5",
", c #7A00B4",
"< c #7B00B4",
"1 c #8A088C",
"2 c #8C0490",
"3 c #9C049F",
"4 c #98099A",
"5 c #AA04AD",
"6 c #A60AA8",
"7 c #B40BB6",
"8 c #B904BC",
"9 c #BA04BD",
"0 c #8500C3",
"q c #8600C3",
"w c #8F00D2",
"e c #9000D2",
"r c #9100D2",
"t c #9900E1",
"y c #9A00E1",
"u c #9C00E1",
"i c #A300F0",
"p c #A700F0",
"a c #B200FF",
"s c #B500FF",
"d c #B30FFF",
"f c #B50FFF",
"g c #B70FFF",
"h c #BC1EFF",
"j c #BF2DFF",
"k c #C20CC4",
"l c #C504CB",
"z c #D00DD2",
"x c #D704DA",
"c c #D804DB",
"v c #E604E9",
"b c #F304F8",
"n c #F604F9",
"m c #F411FB",
"M c #F611FB",
"N c #F811FB",
"B c #C02DFF",
"V c #C12DFF",
"C c #C53CFF",
"Z c #C63CFF",
"A c #F620FB",
"S c #F820FB",
"D c #F82FFB",
"F c #F83EFB",
"G c #C94BFF",
"H c #CA4BFF",
"J c #CD5AFF",
"K c #CE5AFF",
"L c #F94DFB",
"P c #FA5CFB",
"I c #D369FF",
"U c #D678FF",
"Y c #D778FF",
"T c #FA6BFB",
"R c #F97AF9",
"E c #FA7AFB",
"W c #DC87FF",
"Q c #FB88FB",
"! c #FB89FB",
"~ c #FB98FB",
"^ c #FBA7FB",
"/ c #FCA7FC",
"( c #FDB6FD",
") c #FDC5FD",
"_ c #F2D2FF",
"` c #FED4FE",
"' c #FFF2FF",
"] c white",
/* pixels */
"                                                                ",
"                                                                ",
"                                                                ",
"                                                                ",
"                                                                ",
"                                                                ",
"                                                                ",
"                                                                ",
"                                                                ",
"                           u q                                  ",
"                                                                ",
"                                q                               ",
"                              < >                               ",
"                           ra  <                                ",
"                           <<<   >                              ",
"                      a          r                              ",
"                        a        a *u                           ",
"                             aaa  a >                           ",
"                            Dnaag   >                           ",
"                        aqgaP/ Zah  < p                         ",
"                       arpagD]FGuhg                             ",
"                      aa aan`D]_ZKha q                          ",
"                      aqppaSLEQTHZp                             ",
"                      auuaaPD~]QgIaa                            ",
"                      u pa EnFL]~KjZ                            ",
"                     a; paDTn99'/IjaS                           ",
"                     a>paaSPn2 (]KKgga                          ",
"                    aaqra Pv3  ))_KhKa                          ",
"                     aqp>nQ   N]]WpVgur                         ",
"                     uphqNQ   T] hZyapp                         ",
"                    q><aq~Q    T ZWaqap                         ",
"                    rq hrP`      zhZ<up                         ",
"                  a  q<puPE      Yggwpp                         ",
"                     :yuhDA      YaZ pp                         ",
"                    p><pgFl      HgYapu                         ",
"                    p%qpZSM      ZHrarp                         ",
"                    ww<yhLO      pZsau                          ",
"                   p<yppHE1      Hpa r                          ",
"                  aaq; pVT4      urauq                          ",
"                  a riruaD+      paaqp                          ",
"                     r;paE6      p ap                           ",
"                    @ qrp^4     ap a<                           ",
"                     pwyuxk7    p>pua                           ",
"                      uqu5L6    u>ara                           ",
"                       =qnP17   qqup                            ",
"                       a<n(M1&  qrqq                            ",
"                        dcFLo& rXrp                             ",
"                        uunN@4.1q;ra                            ",
"                        qucnnSzb >a                             ",
"                          +Onnn9<                               ",
"                            qup#                                ",
"                             #%                                 ",
"                                                                ",
"                                                                ",
"                                                                ",
"                                                                ",
"                                                                ",
"                                                                ",
"                                                                ",
"                                                                ",
"                                                                ",
"                                                                ",
"                                                                ",
"                                                                "
};
