/* XPM */
static char *Portal241707327666[] = {
/* columns rows colors chars-per-pixel */
"64 64 125 2 ",
"   c None",
".  c black",
"X  c #020003",
"o  c #050007",
"O  c gray3",
"+  c #0C0012",
"@  c #100016",
"#  c #100116",
"$  c #101010",
"%  c #181818",
"&  c #160021",
"*  c #1A0125",
"=  c #1B0225",
"-  c #210030",
";  c #220032",
":  c #240134",
">  c #260034",
",  c #2B003F",
"<  c #2C0041",
"1  c #2F0143",
"2  c #36004E",
"3  c #3A0152",
"4  c #41005D",
"5  c #41005F",
"6  c #450161",
"7  c #4B006E",
"8  c #56007D",
"9  c #5B017F",
"0  c #5E008C",
"q  c #5F008C",
"w  c #60008C",
"e  c #66018E",
"r  c #6A009B",
"t  c #6B009B",
"y  c #6B029B",
"u  c #71019D",
"i  c #7400A8",
"p  c #7400AA",
"a  c #7600AA",
"s  c #7602AA",
"d  c #7F00B7",
"f  c #8100B9",
"g  c #8002B9",
"h  c #8A00C6",
"j  c #8B00C9",
"k  c #8B02C8",
"l  c #8C00C8",
"z  c #9100D2",
"x  c #9500D5",
"c  c #9700D7",
"v  c #9602D7",
"b  c #9600D8",
"n  c #9B00E2",
"m  c #9F00E5",
"M  c #A000E4",
"N  c #A200E6",
"B  c #A102E6",
"V  c #A700F0",
"C  c #AB00F3",
"Z  c #AC02F5",
"A  c #B200FF",
"S  c #B403FF",
"D  c #B204FF",
"F  c #B406FF",
"G  c #B409FD",
"H  c #B70FFF",
"J  c #B912FF",
"K  c #B813FF",
"L  c #B818FD",
"P  c #B918FD",
"I  c #B819FD",
"U  c #BB1FFF",
"Y  c #BC1EFF",
"T  c #BE21FF",
"R  c #BD22FF",
"E  c #BE22FF",
"W  c #BE27FD",
"Q  c #C12DFF",
"!  c #C22DFF",
"~  c #C02EFF",
"^  c #C230FF",
"/  c #C231FF",
"(  c #C332FF",
")  c #C336FD",
"_  c #C53DFF",
"`  c #C63CFF",
"'  c #C73FFF",
"]  c #C740FF",
"[  c #C745FD",
"{  c #C845FD",
"}  c #CA4BFF",
"|  c #CA4CFF",
" . c #CB4EFF",
".. c #CB4FFF",
"X. c #CC54FD",
"o. c #CE5AFF",
"O. c #CF5DFF",
"+. c #D05FFF",
"@. c #D063FD",
"#. c #D369FF",
"$. c #D36AFF",
"%. c #D46CFF",
"&. c #D46DFF",
"*. c #D572FD",
"=. c #D778FF",
"-. c #D879FF",
";. c #D87BFF",
":. c #D97CFF",
">. c #DC87FF",
",. c #DC88FF",
"<. c #DD8AFF",
"1. c #DE90FD",
"2. c #E096FF",
"3. c #E097FF",
"4. c #E199FF",
"5. c #E29FFD",
"6. c #E5A5FF",
"7. c #E9B4FF",
"8. c #EDC3FF",
"9. c #EFCCFD",
"0. c #F3D5FF",
"q. c #F4DBFE",
"w. c #F7E4FF",
"e. c #FBF0FF",
"r. c white",
/* pixels */
"                                                                                                                                ",
"                                                                                                                                ",
"                                                                                                                                ",
"                                                                                                                                ",
"                                                                                                                                ",
"                                                                                                                                ",
"                                                                                                                                ",
"                                                                                                                                ",
"                                                      } 2.#.{ {                                                                 ",
"                                                    #.e.>.9.q.*.X.                                                              ",
"                                                    >.}   X.O.;...X.                                                            ",
"                                              o.  #.Q     ,.G T ^ J {       W                                                   ",
"                                                W }     r.X.%.C +.J m B                                                         ",
"                                              %.{ Q 5.o.e.( a x c J x W Z                                                       ",
"                                            ,...X.W ` 2.i f a a c m H x                                                         ",
"                                          ] ^ *.G >.7.@.j a a a a c m ] d   G                                                   ",
"                                            w.G #.r.o.9 f y 3 a a m h h ] a                                                     ",
"                                         .  P   7.` N 3 , 4 8 a a h a C h J                                                     ",
"                                        {   ) ` 6.J t t 4 4 2 8 a a h h h J J   G B                                             ",
"                                        ;.  G 8.c N a 4 4 4 4 ; a a h m h ^ ^                                                   ",
"                                        2.  H 2.N y a 4 4 4 4 a w a a h m m J m                                                 ",
"                                      ` =.P Q #.` a a < 4 4 4 4 & w a h k m ^ ]                                                 ",
"                                        o.  } F U y w 4 4 1 4 4 4 w y h h m m O.P                                               ",
"                                        Y O.W ,.7 t w : & 1 1 4 4 , w a h h h &.F                                               ",
"                                        K ` ) H w w a : . 4 = = 4 4 7 a h a J T T                                               ",
"                                      X.  A 1.y a w . . . 1 4 4 4 a & a h h J O.T                                               ",
"                                      O.A A { z f 0 # % . . . & 4 4 7 y a a h  .  J                                             ",
"                                       .A ` ` d a . . . $ . < o 4 4 y w a a h ` F   K                                           ",
"                                }   1.:.    N f a . = . O . : , 4 4 a 4 a a h ^ H   C                                           ",
"                                Q   $.`   J k k y ; . . O % . , 4 4 4 8 a a h X.T   N                                           ",
"                                      { A H c c 7 < . . $ . # 4 4 4 4 w a h a ^ W                                               ",
"                                      P A A f y y 7 . . : . : # 4 4 4 , y a h ` ^                                               ",
"                                        A A H s t 8 . = $ O = : 4 4 a y w a h ` H                                               ",
"                                    ;.o.A A H y a 8 . @ o . + # 4 4 4 y y a h %.X.                                              ",
"                                    &.` A A Q 8 t 8 O $ o . ; o 4 4 4 < w a h 0.^                                               ",
"                                      H R A H N w 7 N . . . . = 4 4 4 2 y a h %.^                                               ",
"                                      Y ` Z V 7 w 8 a o # 6 . 4 4 4 4 q w a h %.^   F                                           ",
"                                      H   Z V a t 6 a 0 9 . & 1 4 4 a a a h a 4.h                                               ",
"                                      H   T N V w 7 y k e . < 4 4 4 y 8 a h l ;.h                                               ",
"                                    %.    Q N n a w y 8 1 : = 4 4 4 , y a h ^ ..  T                                             ",
"                                          G ` a B y 7 y 3 2 < 4 4 4 8 a a h  .  h N                                             ",
"                                        }   R N a w y a + 4 4 4 4 i y a a J 4.  h                                               ",
"                                        H   I A a v t a , 4 4 4 4 i a a J a     h                                               ",
"                                            #.m A k a t a 4 4 4 d , a a J h                                                     ",
"                                            #.A A A c 1 a 4 4 2 2 y a J J T                                                     ",
"                                            Q  .A A k < a a 4 h 8 a J J h                                                       ",
"                                              Q A A A A < a a h a a J J T                                                       ",
"                                              =.A T A A B 1 a a a a J                                                           ",
"                                                #.H U A A a a a a a   K                                                         ",
"                                                  T ` U A a B a J T     f                                                       ",
"                                                    1.   .A A f +.    Z N                                                       ",
"                                                          ` [ Q N                                                               ",
"                                                        ] O.T                                                                   ",
"                                                                                                                                ",
"                                                                                                                                ",
"                                                                                                                                ",
"                                                                                                                                ",
"                                                                                                                                ",
"                                                                                                                                ",
"                                                                                                                                ",
"                                                                                                                                ",
"                                                                                                                                ",
"                                                                                                                                ",
"                                                                                                                                "
};
