/* XPM */
static char *Portal191707327665[] = {
/* columns rows colors chars-per-pixel */
"64 64 61 1 ",
"  c #FFFFFF",
". c black",
"X c #050007",
"o c gray3",
"O c #100116",
"+ c #101010",
"@ c #1B0225",
"# c gray22",
"$ c #310441",
"% c #33004B",
"& c #3C054F",
"* c #3D005A",
"= c #480069",
"- c #4A0069",
"; c #52076B",
": c #5D0879",
"> c #7C077D",
", c gray34",
"< c gray50",
"1 c #5C0087",
"2 c #660096",
"3 c #7100A5",
"4 c #7B00B4",
"5 c #8600C3",
"6 c #9100D2",
"7 c #9A00E1",
"8 c #9C00E1",
"9 c #A700F0",
"0 c #B000F0",
"q c #B000FF",
"w c #B200FF",
"e c #B60FFF",
"r c #B70FFF",
"t c #B61EFF",
"y c #BC1EFF",
"u c #BE1EFF",
"i c #BB2DFF",
"p c #C01EFF",
"a c #C21EFF",
"s c #C02DFF",
"d c #C12DFF",
"f c #C22DFF",
"g c #C23CFF",
"h c #C43CFF",
"j c #C53CFF",
"k c #C63CFF",
"l c #C83CFF",
"z c #C94BFF",
"x c #CA4BFF",
"c c #CE5AFF",
"v c #D369FF",
"b c #D778FF",
"n c #DB87FF",
"m c #DC87FF",
"M c #E096FF",
"N c #E7B4FF",
"B c #E9B4FF",
"V c #EDC3FF",
"C c #F2D2FF",
"Z c #F6E1FF",
"A c white",
/* pixels */
"                                                                ",
"                                                                ",
"                                                                ",
"                                                                ",
"                                                                ",
"                                                                ",
"                                                                ",
"                                                                ",
"                                                                ",
"                           ww8                                  ",
"                           ww98ww                               ",
"                           58w6ww                               ",
"                          wZ8 99w9                              ",
"                          rcy996w8                              ",
"                        y dcww6999w                             ",
"                      kk  dk96w 99  w                           ",
"                      x  9kc9995 496w                           ",
"                     c w8rdwywrw66w99                           ",
"                      w9wddwxrww83w8w                           ",
"                     ww99dxwyr w98968 9                         ",
"                     ww6wykyyrwww688 9w                         ",
"                     w99 kkwrrwww589w9w                         ",
"                    kw5wyyywrywwww85w ww                        ",
"                    yw8wrddwkrrwww58ww w                        ",
"                    y6wwwc wwrwrww95ww 9                        ",
"                   y 6wwrrwyyxwwyw95ww 9                        ",
"                     6wdrrxAmvdwwr95ww96                        ",
"                   dw8wdv A@AAkvwr85ww 8                        ",
"                   d89wddA$O;AMbrw98ww 9                        ",
"                   k rdrBCo#Oxykx688ww w                        ",
"                   wrymrmM%+.Xy,<w92ww5w                        ",
"                   dyr dNM.+.@Oxa99k996ww                       ",
"                  wy ykciw-%..O&0w8w88www                       ",
"                  yr 9dVxk=..XO:-7ww9 w                         ",
"                  ryyky7wtO*.6Oygcww8w                          ",
"                  rlrirww9dOO.Ov1www8ww                         ",
"                   yrcywyryOOwyk5ww 9w w                        ",
"                   kxkywk7r9O8xy8w9ww6                          ",
"                  ydry wykr9w85w6w ww6                          ",
"                  w xdkwrdd98www68w w6                          ",
"                     ycrrddwwww6w9ww98w                         ",
"                    > lyrrxwwww68www8                           ",
"                     8ykyrcwww86www84                           ",
"                      6vrrkw w94ww9www                          ",
"                       rxrkyww89ww8ww                           ",
"                       dwdyyww9 w6 w                            ",
"                        dcckw89w8w9w                            ",
"                        kwryw 899 w                             ",
"                        xnrw9466                                ",
"                          989599  w                             ",
"                            ww4 w                               ",
"                             ww                                 ",
"                                                                ",
"                                                                ",
"                                                                ",
"                                                                ",
"                                                                ",
"                                                                ",
"                                                                ",
"                                                                ",
"                                                                ",
"                                                                ",
"                                                                ",
"                                                                "
};
