/* XPM */
static char *Portal201707327666[] = {
/* columns rows colors chars-per-pixel */
"64 64 46 1 ",
"  c #FFFFFF",
". c #100116",
"X c #1B0225",
"o c #2C0041",
"O c #370050",
"+ c #480069",
"@ c #4B006E",
"# c #55007D",
"$ c #56007D",
"% c #5C0087",
"& c #60008C",
"* c #670096",
"= c #6B009B",
"- c #7100A5",
"; c #7600AA",
": c #7B00B4",
"> c #98099A",
", c #8100B9",
"< c #8600C3",
"1 c #8C00C8",
"2 c #9100D2",
"3 c #9C00E1",
"4 c #9C00E6",
"5 c #A300F0",
"6 c #A700F0",
"7 c #AD00FF",
"8 c #B100FF",
"9 c #B200FF",
"0 c #B605FF",
"q c #B70FFF",
"w c #BC1EFF",
"e c #BD2DFF",
"r c #C12DFF",
"t c #C63CFF",
"y c #CA4BFF",
"u c #CB5AFF",
"i c #CE5AFF",
"p c #D369FF",
"a c #D778FF",
"s c #DC87FF",
"d c #E096FF",
"f c #E5A5FF",
"g c #E9B4FF",
"h c #EDC3FF",
"j c #F2D2FF",
"k c white",
/* pixels */
"                                                                ",
"                                                                ",
"                                                                ",
"                                                                ",
"                                                                ",
"                                                                ",
"                                                                ",
"                                                                ",
"                                                                ",
"                                                                ",
"                             9                                  ",
"                             9     9                            ",
"                              :999                              ",
"                            996399                              ",
"                          96639399                              ",
"                      99 966692 69                              ",
"                      9 9699-26< <99                            ",
"                      9 69329996<3699                           ",
"                     9 96:<63662<9239                           ",
"                       3:69999 99<266                           ",
"                      33339999699<93                            ",
"                     396 9926<6996693 6                         ",
"                    69366999q63369<93 39                        ",
"                     66699639996693692 9                        ",
"                      6 9< $9999922963                          ",
"                   9 9< 636$;1&2q326<2                          ",
"                   9696939==o%0q96:299                          ",
"                   693936 =.=@$=q3<969                          ",
"                   3 66939...=$$=q2<26 9                        ",
"                   9 <9699...==O,p<66<                          ",
"                 9 96696r9....=$$92363                          ",
"                    63 qq9.....&&te636  9                       ",
"                  9  66qq9......&ag366  9                       ",
"                  9  2rqqt......&sk6369                         ",
"                    936qrsX..9.9$ha6669                         ",
"                    9<<qtkr....=4j:63                           ",
"                    9696aga999q7uf2629 99                       ",
"                   96996adkw9wskgr3639                          ",
"                  9969 3qtsjaagr536629                          ",
"                  9 399qyqrikwr669<663                          ",
"                     9qqqqwyitw2696662                          ",
"                    > 933999yw9969663                           ",
"                  9  9393999999<9::9 99                         ",
"                      969%99 9999*92 9                          ",
"                       39<399999-69<                            ",
"                       66366333 9269                            ",
"                    9   33636323393                             ",
"                    99  6636966:26                              ",
"                        6629+-6339 3                            ",
"                          :9996  26                             ",
"                              32                                ",
"                             32 9                               ",
"                                                                ",
"                                                                ",
"                                                                ",
"                                                                ",
"                                                                ",
"                                                                ",
"                                                                ",
"                                                                ",
"                                                                ",
"                                                                ",
"                                                                ",
"                                                                "
};
