/* XPM */
static char *Portal141707327665[] = {
/* columns rows colors chars-per-pixel */
"64 64 83 1 ",
"  c #FFFFFF",
". c #29003C",
"X c #480069",
"o c #510078",
"O c #520078",
"+ c gray44",
"@ c #5C0087",
"# c #660096",
"$ c #670096",
"% c #7000A5",
"& c #7100A5",
"* c #7A00B4",
"= c #7B00B4",
"- c #8B048F",
"; c #8D0490",
": c #9C049F",
"> c #AB04AE",
", c #BA04BD",
"< c #8500C3",
"1 c #8600C3",
"2 c #8D00D2",
"3 c #8E00D2",
"4 c #8F00D2",
"5 c #9000D2",
"6 c #9100D2",
"7 c #9900E1",
"8 c #9A00E1",
"9 c #9C00E1",
"0 c #A400F0",
"q c #A700F0",
"w c #AA00F0",
"e c #AD00FF",
"r c #B200FF",
"t c #B500FF",
"y c #B30FFF",
"u c #B50FFF",
"i c #B70FFF",
"p c #BA1EFF",
"a c #BB1EFF",
"s c #BC1EFF",
"d c #BE1EFF",
"f c #BD2DFF",
"g c #C804CB",
"h c #C904CC",
"j c #D804DB",
"k c #E604E9",
"l c #E704EA",
"z c #F404F8",
"x c #F504F8",
"c c #F604F9",
"v c #F811FB",
"b c #C02DFF",
"n c #C12DFF",
"m c #C43CFF",
"M c #C53CFF",
"N c #C63CFF",
"B c #F520FB",
"V c #F720FB",
"C c #F72FFB",
"Z c #F82FFB",
"A c #F63EFB",
"S c #F83EFB",
"D c #C74BFF",
"F c #CA4BFF",
"G c #CD5AFF",
"H c #CE5AFF",
"J c #F94DFB",
"K c #FA5CFB",
"L c #F96BFB",
"P c #FA6BFB",
"I c #FA7AFB",
"U c #E096FF",
"Y c #FB98FB",
"T c #FCA7FC",
"R c #FEA7FE",
"E c #E9B4FF",
"W c #FDB6FD",
"Q c #EDC3FF",
"! c #FDC5FD",
"~ c #FED4FE",
"^ c #FEE3FE",
"/ c #FFF2FF",
"( c white",
/* pixels */
"                                                                ",
"                                                                ",
"                                                                ",
"                                                                ",
"                                                                ",
"                                                                ",
"                                                                ",
"                                                                ",
"                                                                ",
"                           9 1                                  ",
"                                                                ",
"                                1                               ",
"                              = &                               ",
"                           6r  =                                ",
"                           ===   &                              ",
"                      r          6                              ",
"                        r        r +9                           ",
"                             rrr  r &                           ",
"                            rrrri   &                           ",
"                      r r1N1=9=qrs  = q                         ",
"                       r6qiqq3qa=ai                             ",
"                     rrr aqqrrrqwasr 1                          ",
"                    r r=rrrgrrrrFs1                             ",
"                      r6qqqKcccjrrq1  r                         ",
"                      9 r9lc>l,jcH6s                            ",
"                     r$ ihclllcljjnr9  r                        ",
"                     r&r9qljlcljl>Hn9r                          ",
"                   rrr16rlhl: ,cchlsNq                          ",
"                     r1q&l;   v(c>lai16                         ",
"                     9qslhl   P( lj6q&q                         ",
"                    1&=r$h,    P llr1r9                         ",
"                    61 s=,R      lBN=9=                         ",
"                  r  1=q=&A      j>i3qq                         ",
"                     %891&-      CgN qq                         ",
"                    q&=q=X=      zlFiq9 r                       ",
"                    qo19t&6      lB6i9q r                       ",
"                    63=96&6      vjtrs                          ",
"                   q=8q81.$     RAPr 6                          ",
"                  rr13 q1&6    ZYJcr91                          ",
"                  r 6e691$1    YPvPr1q   r                      ",
"                     9$q1==    W^PIrw r                         ",
"                    r 168@&   ~(KW~N=                           ",
"                     q3966=r  R(!(E0r                           ",
"                      911=@F   ^T/ssr                           ",
"                       @86&wi   DyHq  r                         ",
"                       i19&9ir  8U01                            ",
"                    r   q9&9sr 63i0                             ",
"                        riq&qiqQf$6r   r                        ",
"                        1qsq9s9q &r                             ",
"                          riqqr9=                               ",
"                            NqqX  r                             ",
"                             o=                                 ",
"                         r                                      ",
"                                                                ",
"                                                                ",
"                                                                ",
"                                                                ",
"                                                                ",
"                                                                ",
"                                                                ",
"                                                                ",
"                                                                ",
"                                                                ",
"                                                                "
};
