/* XPM */
static char *Portal291707327667[] = {
/* columns rows colors chars-per-pixel */
"64 64 98 2 ",
"   c None",
".  c black",
"X  c #050007",
"o  c #100116",
"O  c #160021",
"+  c #1A0125",
"@  c #240134",
"#  c #2B003F",
"$  c #2F0143",
"%  c #36004E",
"&  c #370050",
"*  c #3A0152",
"=  c #41005D",
"-  c #41005F",
";  c #4B006E",
":  c #56007D",
">  c #60008C",
",  c #6A009B",
"<  c #6B009B",
"1  c #6B029B",
"2  c #7400AA",
"3  c #7600AA",
"4  c #7602AA",
"5  c #8100B9",
"6  c #8002B9",
"7  c #8A00C6",
"8  c #8B00C9",
"9  c #8B02C8",
"0  c #8C00C8",
"q  c #9100D2",
"w  c #9500D5",
"e  c #9700D7",
"r  c #9602D7",
"t  c #9B00E2",
"y  c #9F00E5",
"u  c #A000E4",
"i  c #A200E6",
"p  c #A102E6",
"a  c #A700F0",
"s  c #AB00F3",
"d  c #AA00F4",
"f  c #AC02F5",
"g  c #AC00F6",
"h  c #B101FF",
"j  c #B200FF",
"k  c #B403FF",
"l  c #B304FF",
"z  c #B409FD",
"x  c #B70FFF",
"c  c #B912FF",
"v  c #B813FF",
"b  c #B918FD",
"n  c #BB1FFF",
"m  c #BC1EFF",
"M  c #BE21FF",
"N  c #BD22FF",
"B  c #BD27FD",
"V  c #BE27FD",
"C  c #C12DFF",
"Z  c #C22DFF",
"A  c #C02EFF",
"S  c #C131FF",
"D  c #C230FF",
"F  c #C231FF",
"G  c #C53DFF",
"H  c #C63CFF",
"J  c #C73FFF",
"K  c #C740FF",
"L  c #C746FD",
"P  c #CA4BFF",
"I  c #CA4CFF",
"U  c #CB4EFF",
"Y  c #CB4FFF",
"T  c #CE5AFF",
"R  c #CF5BFF",
"E  c #CF5DFF",
"W  c #D05EFF",
"Q  c #D063FD",
"!  c #D369FF",
"~  c #D36AFF",
"^  c #D46CFF",
"/  c #D46DFF",
"(  c #D572FD",
")  c #D778FF",
"_  c #D87BFF",
"`  c #DC87FF",
"'  c #DD8AFF",
"]  c #DD8BFF",
"[  c #DE90FD",
"{  c #E19AFF",
"}  c #E29FFD",
"|  c #E6A8FF",
" . c #E6A9FF",
".. c #E7AEFD",
"X. c #EAB7FF",
"o. c #EAB8FF",
"O. c #EFC7FF",
"+. c #F8E6FF",
/* pixels */
"                                                                                                                                ",
"                                                                                                                                ",
"                                                                                                                                ",
"                                                                                                                                ",
"                                                                                                                                ",
"                                                                                                                                ",
"                                                                                                                                ",
"                                                                                                                                ",
"                                                          m g                                                                   ",
"                                                      x ~ ( [ V b                                                               ",
"                                                      C   ..' ^ K b                                                             ",
"                                              m   x       E } U / e g       p                                                   ",
"                                                p       P Q s y U _ y z                                                         ",
"                                                    ..m P 3 3 e M K c V z                                                       ",
"                                                    P j * 3 3 3 M M o.c                                                         ",
"                                          c     b ) x g 3 3 3 3 7 g M O.E   g                                                   ",
"                                                C x m $ 3 1 = 3 2 c 5 y | c                                                     ",
"                                            p   C j g $ # = = = 2 7 2 e M '                                                     ",
"                                          | M m x m 1 1 = = = 3 3 3 7 7 c _ U   z p                                             ",
"                                          _ c C 3 d X X + = = = = 3 7 y p W {                                                   ",
"                                    M   M _ m x 9 1 X X = = = 3 = 3 3 7 d F / E                                                 ",
"                                        U U j C n 3 X X = = = 3 = > 3 7 7 v / E                                                 ",
"                                      j U U m g j 1 X + = $ = = = > 1 7 7 d j +.|                                               ",
"                                    j   M E p U ; , X X O $ $ = = # > 3 7 7 e X.H                                               ",
"                                      j K j g j > > X @ + = = = = 3 ; 3 0 3 D U |                                               ",
"                                        c j V 1 3 X X + @ $ = = 3 3 o 3 0 0 C J |                                               ",
"                                        j j b q 5 % + o $ $ = + = = = 1 3 3 e m   ^                                             ",
"                                j   j     j G 5 3 X + + $ $ % + = = = 3 3 3 u c F   W                                           ",
"                                            p 5 3 X o + $ $ @ % = = = 3 3 3 e c K   l                                           ",
"                                      c   x 9 9 , : o + + $ @ % = = = = 3 3 7 M Y   l                                           ",
"                                    j p j x e e ; > o X + + o = = = = 3 3 7 3 F F                                               ",
"                                    j p C j 5 1 , 3 : o o + @ $ = = = 3 3 3 7 M N                                               ",
"                                      P M j x 3 < > + + X + $ $ = = = 1 > 3 7 c |                                               ",
"                                    c ) x j x 1 3 , : . . @ $ $ + = = 1 1 3 7 c |                                               ",
"                                    c G n j C : < > . $ + + = $ = = = 3 > 3 7 c O.                                              ",
"                                      x G j x p > ; < @ + + $ = = = = 3 1 3 7 c {                                               ",
"                                      m P g a ; > : , o + + $ + = = = 3 > 3 7 c '   U                                           ",
"                                      x   b a 3 < ; 1 * + $ = + = = 3 = 3 7 3 c x T                                             ",
"                                      x   T p a > ; > 3 $ $ = = = = = = 3 7 3 c M H                                             ",
"                                    c     T p t 3 > 1 1 + $ $ = = = = 3 3 7 c j ` G                                             ",
"                                          z ~ 3 y , ; , $ = + = = = 3 3 3 7 c j ` T                                             ",
"                                        j   W p 3 > , 3 $ + + = = = 3 3 3 c x T E                                               ",
"                                        j   L j 3 e 1 3 # + ; = = = 3 3 c x     d                                               ",
"                                            M N j 9 3 1 3 * * = = = 3 3 c p                                                     ",
"                                            G P j j e $ 3 = = % % 1 3 c F                                                       ",
"                                            H U x j 9 $ 3 3 = 7 : 3 c M                                                         ",
"                                              T C M j j $ 3 3 7 3 3 c M                                                         ",
"                                                F V x j p $ 3 3 3 3 c                                                           ",
"                                                      j j 3 3 3 3 3 M M                                                         ",
"                                                        x 3 p 3 c F M   5                                                       ",
"                                                          c j 3 ^     g p                                                       ",
"                                                          G N c f                                                               ",
"                                                        G c c                                                                   ",
"                                                                                                                                ",
"                                                                                                                                ",
"                                                                                                                                ",
"                                                                                                                                ",
"                                                                                                                                ",
"                                                                                                                                ",
"                                                                                                                                ",
"                                                                                                                                ",
"                                                                                                                                ",
"                                                                                                                                ",
"                                                                                                                                "
};
