/* XPM */
static char *Portal121707327665[] = {
/* columns rows colors chars-per-pixel */
"64 64 60 1 ",
"  c #FFFFFF",
". c black",
"X c #14001E",
"o c #1F002D",
"O c #3D005A",
"+ c #500450",
"@ c #5F055F",
"# c #480069",
"$ c #520078",
"% c #6E066E",
"& c #7C077D",
"* c #5C0087",
"= c #670096",
"- c #7100A5",
"; c #7A00B4",
": c #7B00B4",
"> c #8A088C",
", c #98099A",
"< c #A60AA8",
"1 c #8600C3",
"2 c #8F00D2",
"3 c #9100D2",
"4 c #9A00E1",
"5 c #9C00E1",
"6 c #A300F0",
"7 c #A400F0",
"8 c #A700F0",
"9 c #AE00FF",
"0 c #B200FF",
"q c #B70FFF",
"w c #B71EFF",
"e c #BC1EFF",
"r c #BD2DFF",
"t c #C20CC4",
"y c #F811FB",
"u c #C12DFF",
"i c #C23CFF",
"p c #C63CFF",
"a c #F820FB",
"s c #F82FFB",
"d c #F83EFB",
"f c #C64BFF",
"g c #CA4BFF",
"h c #CB5AFF",
"j c #F94DFB",
"k c #FA5CFB",
"l c #D169FF",
"z c #D369FF",
"x c #D778FF",
"c c #FA6BFB",
"v c #FA7AFB",
"b c #DF96FF",
"n c #E096FF",
"m c #E5A5FF",
"M c #FCA7FC",
"N c #FDC5FD",
"B c #F6E1FF",
"V c #FBF0FF",
"C c #FFF2FF",
"Z c white",
/* pixels */
"                                                                ",
"                                                                ",
"                                                                ",
"                                                                ",
"                                                                ",
"                                                                ",
"                                                                ",
"                                                                ",
"                                                                ",
"                           0 =                                  ",
"                             3=5-                               ",
"                                *                               ",
"                          0      :                              ",
"                                                                ",
"                                                                ",
"                                3*  *                           ",
"                      0     e    *1                             ",
"                            <3$<0*13                            ",
"                          1-#*O-,1 1                            ",
"                          31-31*::=   3                         ",
"                          --  :-1=:                             ",
"                         51<   1=&*$                            ",
"                      0  :1     1:-*X  1                        ",
"                     8  u*1     :*-$$                           ",
"                        3*3     t-:$o8                          ",
"                   0    33       1O=$3 5                        ",
"                   0   x3:      33*:$118                        ",
"                       u:3      331$:1 :                        ",
"                       3:3      331:*: =                        ",
"                       3:        331*: =                        ",
"                       3:        -1:*131                        ",
"                       *1        3=:$-3-8                       ",
"                  1  8631        :-1:::15                       ",
"                  8  193=        *:13#5                         ",
"                  0 :*p0-        &&:3:5                         ",
"                  3 -:b8u        &.13=                          ",
"                    ::bZ3yc      &%131                          ",
"                    5qh03ZN      &&13                           ",
"                  3 eq z5Cc      @%-                            ",
"                  1 2wm3acs      ,+:  11                        ",
"                     4i3Mky       ,3 3*                         ",
"                    p r8BMy      ,,s 3#                         ",
"                     zf-mcs,     ,,  -:                         ",
"                      n20as,     ,a 11:                         ",
"                       85ady,   %,y :1                          ",
"                       Vpsjy,,  >, 1:                           ",
"                        gs ay&,%,j3#3                           ",
"                        x4 ssa%,, 11                            ",
"                        z8:x v a 1:                             ",
"                          58m  ::$                              ",
"                            53333                               ",
"                             33                                 ",
"                                                                ",
"                                                                ",
"                                                                ",
"                                                                ",
"                                                                ",
"                                                                ",
"                                                                ",
"                                                                ",
"                                                                ",
"                                                                ",
"                                                                ",
"                                                                "
};
