/* XPM */
static char *Portal081707327664[] = {
/* columns rows colors chars-per-pixel */
"64 64 51 1 ",
"  c #FFFFFF",
". c #5F055F",
"X c #6E066E",
"o c #7C077D",
"O c #5B0087",
"+ c #5C0087",
"@ c #7100A5",
"# c #7B00B4",
"$ c #7E00B4",
"% c #8A088C",
"& c #98099A",
"* c #A60AA8",
"= c #B40BB6",
"- c #8500C3",
"; c #8600C3",
": c #8F00D2",
"> c #9000D2",
", c #9100D2",
"< c #9C00E1",
"1 c #A600F0",
"2 c #A700F0",
"3 c #AA00F0",
"4 c #AD00FF",
"5 c #B200FF",
"6 c #B70FFF",
"7 c #BA0FFF",
"8 c #BC2DFF",
"9 c #C20CC4",
"0 c #D00DD2",
"q c #DE0EE0",
"w c #E704EA",
"e c #F604F9",
"r c #F811FB",
"t c #C12DFF",
"y c #C63CFF",
"u c #F02AF2",
"i c #F820FB",
"p c #F82FFB",
"a c #F138F3",
"s c #CA4BFF",
"d c #F246F4",
"f c #F94DFB",
"g c #FA5CFB",
"h c #FA6BFB",
"j c #FA7AFB",
"k c #FB89FB",
"l c #FCA7FC",
"z c #FDB6FD",
"x c #FED4FE",
"c c #FEE3FE",
"v c white",
/* pixels */
"                                                                ",
"                                                                ",
"                                                                ",
"                                                                ",
"                                                                ",
"                                                                ",
"                                                                ",
"                                                                ",
"                                                                ",
"                                                                ",
"                                                                ",
"                             <@;@                               ",
"                                @#                              ",
"                           ;                                    ",
"                                                                ",
"                        <        @  <                           ",
"                        t        # <<                           ",
"                                    O                           ",
"                      s             :                           ",
"                       8                                        ",
"                                                                ",
"                                     ,$                         ",
"                      4                7                        ",
"                      s kcv            5                        ",
"                        vv           6 1                        ",
"                       xfl                                      ",
"                     6qlvj                                      ",
"                      0if                                       ",
"                      9fz                                       ",
"                      &lc                                       ",
"                    @ &ih              3                        ",
"                      &9a              3                        ",
"                   :   =k              31                       ",
"                   ;  *af                                       ",
"                 1    ==r                                       ",
"                      9=r                                       ",
"                      &u                                        ",
"                      &*                                        ",
"                     &&                                         ",
"                    3;& p                                       ",
"                     ;50f             &                         ",
"                       ef             =                         ",
"                     ;o&f            d&                         ",
"                     <+&hp           &                          ",
"                       &if                                      ",
"                       %eg                                      ",
"                        &r       g                              ",
"                        %ef      f                              ",
"                          ee    f.X                             ",
"                          e    hw&o                             ",
"                            wrf&o                               ",
"                             y.                                 ",
"                                                                ",
"                                                                ",
"                                                                ",
"                                                                ",
"                                                                ",
"                                                                ",
"                                                                ",
"                                                                ",
"                                                                ",
"                                                                ",
"                                                                ",
"                                                                "
};
