/* XPM */
static char *result[] = {
/* columns rows colors chars-per-pixel */
"65 65 4 1 ",
"  c #4C513B",
". c #959F80",
"X c #DBE7C6",
"o c None",
/* pixels */
".................................................................",
"XXXXX.XX.XXX.XXX.XXX.XXX.XXX.XXX.XXX.XXX.XXX.XXX.XXX.XXX.XX.XXXXX",
"XXXXX.XX.XXX.XXX.XXX.XXX.XXX.XXX.XXX.XXX.XXX.XXX.XXX.XXX.XX.XXXXX",
"XXXXX.XX.XXX.XXX.XXX.XXX.XXX.XXX.XXX.XXX.XXX.XXX.XXX.XXX.XX.XXXXX",
"XXXXX.......................................................XXXXX",
"......       .XX.ooooooooooooooooooooooooooooooo.XX.       ......",
"XXXX.        .XX.ooooooooooooooooooooooooooooooo.XX.        .XXXX",
"XXXX. X   X  .XX.ooooooooooooooooooooooooooooooo.XX.  X   X .XXXX",
"..... XX  X  .XX.ooooooooooooooooooooooooooooooo.XX.  X  XX .....",
"XXXX.  X  X  .XX.ooooooooooooooooooooooooooooooo.XX.  X  X  .XXXX",
"XXXX.   X  X .XX.ooooooooooooooooooooooooooooooo.XX. X  X   .XXXX",
"XXXX.      X .XX.ooooooooooooooooooooooooooooooo.XX. X      .XXXX",
".....      X .XX.ooooooooooooooooooooooooooooooo.XX. X      .....",
"XXXX.X     X .XX.ooooooooooooooooooooooooooooooo.XX. X     X.XXXX",
"XXXX. XX     .XX.ooooooooooooooooooooooooooooooo.XX.     XX .XXXX",
"XXXX.   X    .XX.ooooooooooooooooooooooooooooooo.XX.    X   .XXXX",
".....XX  X   .XX.ooooooooooooooooooooooooooooooo.XX.   X  XX.....",
"XXXX.XX  X   .XX.ooooooooooooooooooooooooooooooo.XX.   X  X .XXXX",
"XXXX.XXX  X  .XX.ooooooooooooooooooooooooooooooo.XX.  X  X  .XXXX",
"XXXX.XXX  X  .XX.ooooooooooooooooooooooooooooooo.XX.  X  X  .XXXX",
".....XXX  X  .XX.ooooooooooooooooooooooooooooooo.XX.  X  X  .....",
"XXXX.XXX  X  .XX.ooooooooooooooooooooooooooooooo.XX.  .  X  .XXXX",
"XXXX.X.   .  .XX.ooooooooooooooooooooooooooooooo.XX.  .   . .XXXX",
"XXXX...   .  .XX.ooooooooooooooooooooooooooooooo.XX.      ...XXXX",
".....        .XX.ooooooooooooooooooooooooooooooo.XX.        .....",
"XXXX.        .XX.ooooooooooooooooooooooooooooooo.XX.        .XXXX",
"XXXX.        .XX.ooooooooooooooooooooooooooooooo.XX.        .XXXX",
"XXXX.        .XX.ooooooooooooooooooooooooooooooo.XX.        .XXXX",
".....        .XX.ooooooooooooooooooooooooooooooo.XX.        .....",
"XXXX.        .XX.ooooooooooooooooooooooooooooooo.XX.        .XXXX",
"XXXX....     .XX.ooooooooooooooooooooooooooooooo.XX.     ....XXXX",
"XXXX.   .    .XX.ooooooooooooooooooooooooooooooo.XX.    .   .XXXX",
".....    .   .XX.ooooooooooooooooooooooooooooooo.XX.   .    .....",
"XXXX.    .   .XX.ooooooooooooooooooooooooooooooo.XX.   .    .XXXX",
"XXXX.     .  .XX.ooooooooooooooooooooooooooooooo.XX.  .     .XXXX",
"XXXX.     .  .XX.ooooooooooooooooooooooooooooooo.XX.  .     .XXXX",
".....     .  .XX.ooooooooooooooooooooooooooooooo.XX.  .     .....",
"XXXX.     .  .XX.ooooooooooooooooooooooooooooooo.XX.  .     .XXXX",
"XXXX.     .  .XX.ooooooooooooooooooooooooooooooo.XX.  .     .XXXX",
"XXXX.        .XX.ooooooooooooooooooooooooooooooo.XX.        .XXXX",
".....        .XX.ooooooooooooooooooooooooooooooo.XX.        .....",
"XXXX. X   X  .XX.ooooooooooooooooooooooooooooooo.XX.   X   X.XXXX",
"XXXX.        .XX.ooooooooooooooooooooooooooooooo.XX.        .XXXX",
"XXXX.        .XX.ooooooooooooooooooooooooooooooo.XX.        .XXXX",
".....        .XX.ooooooooooooooooooooooooooooooo.XX.        .....",
"XXXX.  X     .XX.ooooooooooooooooooooooooooooooo.XX.      X .XXXX",
"XXXX.        .XX.ooooooooooooooooooooooooooooooo.XX.        .XXXX",
"XXXX.XXX     .XX.ooooooooooooooooooooooooooooooo.XX.        .XXXX",
".....XXX     .XX.ooooooooooooooooooooooooooooooo.XX.       X.....",
"XXXX.XX      .XX.ooooooooooooooooooooooooooooooo.XX.    X   .XXXX",
"XXXX.        .XX.ooooooooooooooooooooooooooooooo.XX.   XXX  .XXXX",
"XXXX.        .XX.ooooooooooooooooooooooooooooooo.XX.    XX  .XXXX",
".....        .XX.ooooooooooooooooooooooooooooooo.XX.     XX .....",
"XXXX.        .XX.ooooooooooooooooooooooooooooooo.XX.        .XXXX",
"XXXX.        .XX.ooooooooooooooooooooooooooooooo.XX.        .XXXX",
"XXXX.        .XX.ooooooooooooooooooooooooooooooo.XX.        .XXXX",
".....        .XX.ooooooooooooooooooooooooooooooo.XX.        .....",
"XXXX.X       .XX.ooooooooooooooooooooooooooooooo.XX.       X.XXXX",
"XXXX.XX      .XX.ooooooooooooooooooooooooooooooo.XX.      XX.XXXX",
"XXXX.X       .XX.ooooooooooooooooooooooooooooooo.XX.       X.XXXX",
".....        .XX.ooooooooooooooooooooooooooooooo.XX.        .....",
"XXXX.        .XX.ooooooooooooooooooooooooooooooo.XX.        .XXXX",
"XXXX.        .XX.ooooooooooooooooooooooooooooooo.XX.        .XXXX",
"XXXX.        .XX.ooooooooooooooooooooooooooooooo.XX.        .XXXX",
".....        .XX.ooooooooooooooooooooooooooooooo.XX.        ....."
};
