/* XPM */
static char *result[] = {
/* columns rows colors chars-per-pixel */
"65 65 4 1 ",
"  c #4C513B",
". c #959F80",
"X c #DBE7C6",
"o c None",
/* pixels */
".................................................................",
"XXXXX.XX.XXX.XXX.XXX.XXX.XXX.XXX.XXX.XXX.XXX.XXX.XXX.XXX.XX.XXXXX",
"XXXXX.XX.XXX.XXX.XXX.XXX.XXX.XXX.XXX.XXX.XXX.XXX.XXX.XXX.XX.XXXXX",
"XXXXX.XX.XXX.XXX.XXX.XXX.XXX.XXX.XXX.XXX.XXX.XXX.XXX.XXX.XX.XXXXX",
"XXXXX.......................................................XXXXX",
".......                    .XX.ooo.XX.                    .......",
"XXXX.X.                    .XX.ooo.XX.                    .X.XXXX",
"XXXX.X.             X   X  .XX.ooo.XX.  X   X             .X.XXXX",
".....X.             XX  X  .XX.ooo.XX.  X  XX             .X.....",
"XXXX.X.              X  X  .XX.ooo.XX.  X  X              .X.XXXX",
"XXXX.X.       XXXXX   X  X .XX.ooo.XX. X  X   XXXXX       .X.XXXX",
"XXXX.X.                  X .XX.ooo.XX. X                  .X.XXXX",
".....X.                  X .XX.ooo.XX. X                  .X.....",
"XXXX.X.       XXXXXX     X .XX.ooo.XX. X     XXXXXX       .X.XXXX",
"XXXX.X.     XX      XX     .XX.ooo.XX.     XX      XX     .X.XXXX",
"XXXX.X.    X   XXXX   X    .XX.ooo.XX.    X   XXXX   X    .X.XXXX",
".....X.   X  XXXXXXXX  X   .XX.ooo.XX.   X  XX    XX  X   .X.....",
"XXXX.X.   X  XXXXXXXX  X   .XX.ooo.XX.   X  X      X  X   .X.XXXX",
"XXXX.X.  X  XXXXXXXXXX  X  .XX.ooo.XX.  X  X   XX   X  X  .X.XXXX",
"XXXX.X.  X  XXXXX XXXX  X  .XX.ooo.XX.  X  X  X  X  X  X  .X.XXXX",
".....X.  X  XXXX  XXXX  X  .XX.ooo.XX.  X  X  X     X  X  .X.....",
"XXXX.X.  X  XXXX  XXXX  X  .XX.ooo.XX.  .  X   ..   X  .  .X.XXXX",
"XXXX.X.  .   .XX  XX.   .  .XX.ooo.XX.  .   .      .   .  .X.XXXX",
"XXXX.X.  .   ..XXXX..   .  .XX.ooo.XX.      ..    ..   .  .X.XXXX",
".....X.   .    ....        .XX.ooo.XX.        ....    .   .X.....",
"XXXX.X.   .                .XX.ooo.XX.                .   .X.XXXX",
"XXXX.X.    .               .XX.ooo.XX.               .    .X.XXXX",
"XXXX.X. X   ..             .XX.ooo.XX.             ..   X .X.XXXX",
".....X.       ...          .XX.ooo.XX.          ...       .X.....",
"XXXX.X.   X      ..        .XX.ooo.XX.        ..      X   .X.XXXX",
"XXXX.X.      X     ...     .XX.ooo.XX.     ...     X      .X.XXXX",
"XXXX.X.               .    .XX.ooo.XX.    .               .X.XXXX",
".....X.                .   .XX.ooo.XX.   .                .X.....",
"XXXX.X.                .   .XX.ooo.XX.   .                .X.XXXX",
"XXXX.X.                 .  .XX.ooo.XX.  .                 .X.XXXX",
"XXXX.X.                 .  .XX.ooo.XX.  .                 .X.XXXX",
".....X.                 .  .XX.ooo.XX.  .                 .X.....",
"XXXX.X.                 .  .XX.ooo.XX.  .                 .X.XXXX",
"XXXX.X.                 .  .XX.ooo.XX.  .                 .X.XXXX",
"XXXX.X.                    .XX.ooo.XX.                    .X.XXXX",
".....X.                    .XX.ooo.XX.                    .X.....",
"XXXX.X.             X   X  .XX.ooo.XX.   X   X    X       .X.XXXX",
"XXXX.X.                    .XX.ooo.XX.           XXX      .X.XXXX",
"XXXX.X.                    .XX.ooo.XX.            XXX     .X.XXXX",
".....X.      XX            .XX.ooo.XX.           X        .X.....",
"XXXX.X.     XXXX     X     .XX.ooo.XX.      X   XXX       .X.XXXX",
"XXXX.X.     XXXX           .XX.ooo.XX.           XXX      .X.XXXX",
"XXXX.X.    XXXX    XXX     .XX.ooo.XX.        X           .X.XXXX",
".....X.    XX     XXXX     .XX.ooo.XX.       XXX          .X.....",
"XXXX.X.    X     XXXX      .XX.ooo.XX.    X   XXX         .X.XXXX",
"XXXX.X.          X         .XX.ooo.XX.   XXX              .X.XXXX",
"XXXX.X.                    .XX.ooo.XX.    XX              .X.XXXX",
".....X.                    .XX.ooo.XX.     XX             .X.....",
"XXXX.X.  X                 .XX.ooo.XX.                 X  .X.XXXX",
"XXXX.X.  XX                .XX.ooo.XX.                XX  .X.XXXX",
"XXXX.X.  XXX    X          .XX.ooo.XX.          X    XXX  .X.XXXX",
".....X.  XXXX   XX         .XX.ooo.XX.         XX   XXXX  .X.....",
"XXXX.X.   XXXXX  XXX       .XX.ooo.XX.       XXX  XXXXX   .X.XXXX",
"XXXX.X.   XXXXXX XXXX      .XX.ooo.XX.      XXXX XXXXXX   .X.XXXX",
"XXXX.X.    XXXXX  XX       .XX.ooo.XX.       XX  XXXXX    .X.XXXX",
".....X.     XXX            .XX.ooo.XX.            XXX     .X.....",
"XXXX.X.                    .XX.ooo.XX.                    .X.XXXX",
"XXXX.X.                    .XX.ooo.XX.                    .X.XXXX",
"XXXX.X.                    .XX.ooo.XX.                    .X.XXXX",
".....X.                    .XX.ooo.XX.                    .X....."
};
