/* XPM */
static char *_5546eeda035471e956c1e6a8ed70bfeaTGXlvXuOSLyNE1U[] = {
/* columns rows colors chars-per-pixel */
"65 65 4 1 ",
"  c None",
". c #4C513B",
"X c #959F80",
"o c #DBE7C6",
/* pixels */
"XXXXXXXXXXXXXXXXXXXXXXXXXXXXXXXXXXXXXXXXXXXXXXXXXXXXXXXXXXXXXXXXX",
"oooooXooXoooXoooXoooXoooXoooXoooXoooXoooXoooXoooXoooXoooXooXooooo",
"oooooXooXoooXoooXoooXoooXoooXoooXoooXoooXoooXoooXoooXoooXooXooooo",
"oooooXooXoooXoooXoooXoooXoooXoooXoooXoooXoooXoooXoooXoooXooXooooo",
"oooooXXXXXXXXXXXXXXXXXXXXXXXXXXXXXXXXXXXXXXXXXXXXXXXXXXXXXXXooooo",
"XXXXXX..XooX                                         XooX..XXXXXX",
"ooooX...XooX                                         XooX...Xoooo",
"ooooXo..XooX                                         XooX..oXoooo",
"XXXXXo..XooX                                         XooX..oXXXXX",
"ooooXo..XooX                                         XooX..oXoooo",
"ooooX.o.XooX                                         XooX.o.Xoooo",
"ooooX.o.XooX                                         XooX.o.Xoooo",
"XXXXX.o.XooX                                         XooX.o.XXXXX",
"ooooX.o.XooX                                         XooX.o.Xoooo",
"ooooX...XooX                                         XooX...Xoooo",
"ooooX...XooX                                         XooX...Xoooo",
"XXXXX...XooX                                         XooX...XXXXX",
"ooooX...XooX                                         XooX...Xoooo",
"ooooXo..XooX                                         XooX..oXoooo",
"ooooXo..XooX                                         XooX..oXoooo",
"XXXXXo..XooX                                         XooX..oXXXXX",
"ooooXo..XooX                                         XooX..XXoooo",
"ooooXX..XooX                                         XooX..XXoooo",
"ooooXX..XooX                                         XooX...Xoooo",
"XXXXX...XooX                                         XooX...XXXXX",
"ooooX...XooX                                         XooX...Xoooo",
"ooooX...XooX                                         XooX...Xoooo",
"ooooX...XooX                                         XooX...Xoooo",
"XXXXX...XooX                                         XooX...XXXXX",
"ooooX...XooX                                         XooX...Xoooo",
"ooooX...XooX                                         XooX...Xoooo",
"ooooX...XooX                                         XooX...Xoooo",
"XXXXX...XooX                                         XooX...XXXXX",
"ooooX...XooX                                         XooX...Xoooo",
"ooooXX..XooX                                         XooX..XXoooo",
"ooooXX..XooX                                         XooX..XXoooo",
"XXXXXX..XooX                                         XooX..XXXXXX",
"ooooXX..XooX                                         XooX..XXoooo",
"ooooXX..XooX                                         XooX..XXoooo",
"ooooX...XooX                                         XooX...Xoooo",
"XXXXX...XooX                                         XooX...XXXXX",
"ooooXo..XooX                                         XooX...Xoooo",
"ooooX...XooX                                         XooX...Xoooo",
"ooooX...XooX                                         XooX...Xoooo",
"XXXXX...XooX                                         XooX...XXXXX",
"ooooX...XooX                                         XooX...Xoooo",
"ooooX...XooX                                         XooX...Xoooo",
"ooooX...XooX                                         XooX...Xoooo",
"XXXXX...XooX                                         XooX...XXXXX",
"ooooX...XooX                                         XooX...Xoooo",
"ooooX...XooX                                         XooX...Xoooo",
"ooooX...XooX                                         XooX...Xoooo",
"XXXXX...XooX                                         XooX...XXXXX",
"ooooX...XooX                                         XooX...Xoooo",
"ooooX...XooX                                         XooX...Xoooo",
"ooooX...XooX                                         XooX...Xoooo",
"XXXXX...XooX                                         XooX...XXXXX",
"ooooX...XooX                                         XooX...Xoooo",
"ooooX...XooX                                         XooX...Xoooo",
"ooooX...XooX                                         XooX...Xoooo",
"XXXXX...XooX                                         XooX...XXXXX",
"ooooX...XooX                                         XooX...Xoooo",
"ooooX...XooX                                         XooX...Xoooo",
"ooooX...XooX                                         XooX...Xoooo",
"XXXXX...XooX                                         XooX...XXXXX"
};
