/* XPM */
static char *_d2b82e29b41487082096d751f2bd66bDxAq3IeVrURoxxXv[] = {
/* columns rows colors chars-per-pixel */
"65 65 3 1 ",
"  c None",
". c #959F80",
"X c #DBE7C6",
/* pixels */
".................................................................",
"XXXXX.XX.XXX.XXX.XXX.XXX.XXX.XXX.XXX.XXX.XXX.XXX.XXX.XXX.XX.XXXXX",
"XXXXX.XX.XXX.XXX.XXX.XXX.XXX.XXX.XXX.XXX.XXX.XXX.XXX.XXX.XX.XXXXX",
"XXXXX.XX.XXX.XXX.XXX.XXX.XXX.XXX.XXX.XXX.XXX.XXX.XXX.XXX.XX.XXXXX",
"XXXXX.......................................................XXXXX",
"......                                                     ......",
"XXXX.                                                       .XXXX",
"XXXX.                                                       .XXXX",
".....                                                       .....",
"XXXX.                                                       .XXXX",
"XXXX.                                                       .XXXX",
"XXXX.                                                       .XXXX",
".....                                                       .....",
"XXXX.                                                       .XXXX",
"XXXX.                                                       .XXXX",
"XXXX.                                                       .XXXX",
".....                                                       .....",
"XXXX.                                                       .XXXX",
"XXXX.                                                       .XXXX",
"XXXX.                                                       .XXXX",
".....                                                       .....",
"XXXX.                                                       .XXXX",
"XXXX.                                                       .XXXX",
"XXXX.                                                       .XXXX",
".....                                                       .....",
"XXXX.                                                       .XXXX",
"XXXX.                                                       .XXXX",
"XXXX.                                                       .XXXX",
".....                                                       .....",
"XXXX.                                                       .XXXX",
"XXXX.                                                       .XXXX",
"XXXX.                                                       .XXXX",
".....                                                       .....",
"XXXX.                                                       .XXXX",
"XXXX.                                                       .XXXX",
"XXXX.                                                       .XXXX",
".....                                                       .....",
"XXXX.                                                       .XXXX",
"XXXX.                                                       .XXXX",
"XXXX.                                                       .XXXX",
".....                                                       .....",
"XXXX.                                                       .XXXX",
"XXXX.                                                       .XXXX",
"XXXX.                                                       .XXXX",
".....                                                       .....",
"XXXX.                                                       .XXXX",
"XXXX.                                                       .XXXX",
"XXXX.                                                       .XXXX",
".....                                                       .....",
"XXXX.                                                       .XXXX",
"XXXX.                                                       .XXXX",
"XXXX.                                                       .XXXX",
".....                                                       .....",
"XXXX.                                                       .XXXX",
"XXXX.                                                       .XXXX",
"XXXX.                                                       .XXXX",
".....                                                       .....",
"XXXX.                                                       .XXXX",
"XXXX.                                                       .XXXX",
"XXXX.                                                       .XXXX",
".....                                                       .....",
"XXXX.                                                       .XXXX",
"XXXX.                                                       .XXXX",
"XXXX.                                                       .XXXX",
".....                                                       ....."
};
