/* XPM */
static char *_f04714a88004d2c8b90d814a2826d77IA9Db6HfYjomRVRV[] = {
/* columns rows colors chars-per-pixel */
"65 65 3 1 ",
"  c None",
". c #959F80",
"X c #DBE7C6",
/* pixels */
".................................................................",
"XXXXX.XX.XXX.XXX.XXX.XXX.XXX.XXX.XXX.XXX.XXX.XXX.XXX.XXX.XX.XXXXX",
"XXXXX.XX.XXX.XXX.XXX.XXX.XXX.XXX.XXX.XXX.XXX.XXX.XXX.XXX.XX.XXXXX",
"XXXXX.XX.XXX.XXX.XXX.XXX.XXX.XXX.XXX.XXX.XXX.XXX.XXX.XXX.XX.XXXXX",
"XXXXX.......................................................XXXXX",
".......                                                   .......",
"XXXX.X.                                                   .X.XXXX",
"XXXX.X.                                                   .X.XXXX",
".....X.                                                   .X.....",
"XXXX.X.                                                   .X.XXXX",
"XXXX.X.                                                   .X.XXXX",
"XXXX.X.                                                   .X.XXXX",
".....X.                                                   .X.....",
"XXXX.X.                                                   .X.XXXX",
"XXXX.X.                                                   .X.XXXX",
"XXXX.X.                                                   .X.XXXX",
".....X.                                                   .X.....",
"XXXX.X.                                                   .X.XXXX",
"XXXX.X.                                                   .X.XXXX",
"XXXX.X.                                                   .X.XXXX",
".....X.                                                   .X.....",
"XXXX.X.                                                   .X.XXXX",
"XXXX.X.                                                   .X.XXXX",
"XXXX.X.                                                   .X.XXXX",
".....X.                                                   .X.....",
"XXXX.X.                                                   .X.XXXX",
"XXXX.X.                                                   .X.XXXX",
"XXXX.X.                                                   .X.XXXX",
".....X.                                                   .X.....",
"XXXX.X.                                                   .X.XXXX",
"XXXX.X.                                                   .X.XXXX",
"XXXX.X.                                                   .X.XXXX",
".....X.                                                   .X.....",
"XXXX.X.                                                   .X.XXXX",
"XXXX.X.                                                   .X.XXXX",
"XXXX.X.                                                   .X.XXXX",
".....X.                                                   .X.....",
"XXXX.X.                                                   .X.XXXX",
"XXXX.X.                                                   .X.XXXX",
"XXXX.X.                                                   .X.XXXX",
".....X.                                                   .X.....",
"XXXX.X.                                                   .X.XXXX",
"XXXX.X.                                                   .X.XXXX",
"XXXX.X.                                                   .X.XXXX",
".....X.                                                   .X.....",
"XXXX.X.                                                   .X.XXXX",
"XXXX.X.                                                   .X.XXXX",
"XXXX.X.                                                   .X.XXXX",
".....X.                                                   .X.....",
"XXXX.X.                                                   .X.XXXX",
"XXXX.X.                                                   .X.XXXX",
"XXXX.X.                                                   .X.XXXX",
".....X.                                                   .X.....",
"XXXX.X.                                                   .X.XXXX",
"XXXX.X.                                                   .X.XXXX",
"XXXX.X.                                                   .X.XXXX",
".....X.                                                   .X.....",
"XXXX.X.                                                   .X.XXXX",
"XXXX.X.                                                   .X.XXXX",
"XXXX.X.                                                   .X.XXXX",
".....X.                                                   .X.....",
"XXXX.X.                                                   .X.XXXX",
"XXXX.X.                                                   .X.XXXX",
"XXXX.X.                                                   .X.XXXX",
".....X.                                                   .X....."
};
