/* XPM */
static char *result[] = {
/* columns rows colors chars-per-pixel */
"65 65 4 1 ",
"  c #4C513B",
". c #959F80",
"X c #DBE7C6",
"o c None",
/* pixels */
".................................................................",
"XXXXX.XX.XXX.XXX.XXX.XXX.XXX.XXX.XXX.XXX.XXX.XXX.XXX.XXX.XX.XXXXX",
"XXXXX.XX.XXX.XXX.XXX.XXX.XXX.XXX.XXX.XXX.XXX.XXX.XXX.XXX.XX.XXXXX",
"XXXXX.XX.XXX.XXX.XXX.XXX.XXX.XXX.XXX.XXX.XXX.XXX.XXX.XXX.XX.XXXXX",
"XXXXX.......................................................XXXXX",
"......          .XX.ooooooooooooooooooooooooo.XX.          ......",
"XXXX.           .XX.ooooooooooooooooooooooooo.XX.           .XXXX",
"XXXX.    X   X  .XX.ooooooooooooooooooooooooo.XX.  X   X    .XXXX",
".....    XX  X  .XX.ooooooooooooooooooooooooo.XX.  X  XX    .....",
"XXXX.     X  X  .XX.ooooooooooooooooooooooooo.XX.  X  X     .XXXX",
"XXXX.XXX   X  X .XX.ooooooooooooooooooooooooo.XX. X  X   XXX.XXXX",
"XXXX.         X .XX.ooooooooooooooooooooooooo.XX. X         .XXXX",
".....         X .XX.ooooooooooooooooooooooooo.XX. X         .....",
"XXXX.XXXX     X .XX.ooooooooooooooooooooooooo.XX. X     XXXX.XXXX",
"XXXX.    XX     .XX.ooooooooooooooooooooooooo.XX.     XX    .XXXX",
"XXXX.XXX   X    .XX.ooooooooooooooooooooooooo.XX.    X   XXX.XXXX",
".....XXXXX  X   .XX.ooooooooooooooooooooooooo.XX.   X  XX   .....",
"XXXX.XXXXX  X   .XX.ooooooooooooooooooooooooo.XX.   X  X    .XXXX",
"XXXX.XXXXXX  X  .XX.ooooooooooooooooooooooooo.XX.  X  X   XX.XXXX",
"XXXX.X XXXX  X  .XX.ooooooooooooooooooooooooo.XX.  X  X  X  .XXXX",
".....  XXXX  X  .XX.ooooooooooooooooooooooooo.XX.  X  X  X  .....",
"XXXX.  XXXX  X  .XX.ooooooooooooooooooooooooo.XX.  .  X   ...XXXX",
"XXXX.  XX.   .  .XX.ooooooooooooooooooooooooo.XX.  .   .    .XXXX",
"XXXX.XXX..   .  .XX.ooooooooooooooooooooooooo.XX.      ..   .XXXX",
"........        .XX.ooooooooooooooooooooooooo.XX.        ........",
"XXXX.           .XX.ooooooooooooooooooooooooo.XX.           .XXXX",
"XXXX.           .XX.ooooooooooooooooooooooooo.XX.           .XXXX",
"XXXX.           .XX.ooooooooooooooooooooooooo.XX.           .XXXX",
"......          .XX.ooooooooooooooooooooooooo.XX.          ......",
"XXXX. ..        .XX.ooooooooooooooooooooooooo.XX.        .. .XXXX",
"XXXX.   ...     .XX.ooooooooooooooooooooooooo.XX.     ...   .XXXX",
"XXXX.      .    .XX.ooooooooooooooooooooooooo.XX.    .      .XXXX",
".....       .   .XX.ooooooooooooooooooooooooo.XX.   .       .....",
"XXXX.       .   .XX.ooooooooooooooooooooooooo.XX.   .       .XXXX",
"XXXX.        .  .XX.ooooooooooooooooooooooooo.XX.  .        .XXXX",
"XXXX.        .  .XX.ooooooooooooooooooooooooo.XX.  .        .XXXX",
".....        .  .XX.ooooooooooooooooooooooooo.XX.  .        .....",
"XXXX.        .  .XX.ooooooooooooooooooooooooo.XX.  .        .XXXX",
"XXXX.        .  .XX.ooooooooooooooooooooooooo.XX.  .        .XXXX",
"XXXX.           .XX.ooooooooooooooooooooooooo.XX.           .XXXX",
".....           .XX.ooooooooooooooooooooooooo.XX.           .....",
"XXXX.    X   X  .XX.ooooooooooooooooooooooooo.XX.   X   X   .XXXX",
"XXXX.           .XX.ooooooooooooooooooooooooo.XX.           .XXXX",
"XXXX.           .XX.ooooooooooooooooooooooooo.XX.           .XXXX",
".....           .XX.ooooooooooooooooooooooooo.XX.           .....",
"XXXX.     X     .XX.ooooooooooooooooooooooooo.XX.      X   X.XXXX",
"XXXX.           .XX.ooooooooooooooooooooooooo.XX.           .XXXX",
"XXXX.   XXX     .XX.ooooooooooooooooooooooooo.XX.        X  .XXXX",
".....  XXXX     .XX.ooooooooooooooooooooooooo.XX.       XXX .....",
"XXXX. XXXX      .XX.ooooooooooooooooooooooooo.XX.    X   XXX.XXXX",
"XXXX. X         .XX.ooooooooooooooooooooooooo.XX.   XXX     .XXXX",
"XXXX.           .XX.ooooooooooooooooooooooooo.XX.    XX     .XXXX",
".....           .XX.ooooooooooooooooooooooooo.XX.     XX    .....",
"XXXX.           .XX.ooooooooooooooooooooooooo.XX.           .XXXX",
"XXXX.           .XX.ooooooooooooooooooooooooo.XX.           .XXXX",
"XXXX.X          .XX.ooooooooooooooooooooooooo.XX.          X.XXXX",
".....XX         .XX.ooooooooooooooooooooooooo.XX.         XX.....",
"XXXX. XXX       .XX.ooooooooooooooooooooooooo.XX.       XXX .XXXX",
"XXXX. XXXX      .XX.ooooooooooooooooooooooooo.XX.      XXXX .XXXX",
"XXXX.  XX       .XX.ooooooooooooooooooooooooo.XX.       XX  .XXXX",
".....           .XX.ooooooooooooooooooooooooo.XX.           .....",
"XXXX.           .XX.ooooooooooooooooooooooooo.XX.           .XXXX",
"XXXX.           .XX.ooooooooooooooooooooooooo.XX.           .XXXX",
"XXXX.           .XX.ooooooooooooooooooooooooo.XX.           .XXXX",
".....           .XX.ooooooooooooooooooooooooo.XX.           ....."
};
