/* XPM */
static char *result[] = {
/* columns rows colors chars-per-pixel */
"65 65 3 1 ",
"  c #4C513B",
". c #959F80",
"X c #DBE7C6",
/* pixels */
".................................................................",
"XXXXX.XX.XXX.XXX.XXX.XXX.XXX.XXX.XXX.XXX.XXX.XXX.XXX.XXX.XX.XXXXX",
"XXXXX.XX.XXX.XXX.XXX.XXX.XXX.XXX.XXX.XXX.XXX.XXX.XXX.XXX.XX.XXXXX",
"XXXXX.XX.XXX.XXX.XXX.XXX.XXX.XXX.XXX.XXX.XXX.XXX.XXX.XXX.XX.XXXXX",
"XXXXX.......................................................XXXXX",
"......X.                    .XX...XX.                    .X......",
"XXXX.XX.                    .XX...XX.                    .XX.XXXX",
"XXXX.XX.             X   X  .XX...XX.  X   X             .XX.XXXX",
".....XX.             XX  X  .XX...XX.  X  XX             .XX.....",
"XXXX.XX.              X  X  .XX...XX.  X  X              .XX.XXXX",
"XXXX.XX.       XXXXX   X  X .XX...XX. X  X   XXXXX       .XX.XXXX",
"XXXX.XX.                  X .XX...XX. X                  .XX.XXXX",
".....XX.                  X .XX...XX. X                  .XX.....",
"XXXX.XX.       XXXXXX     X .XX...XX. X     XXXXXX       .XX.XXXX",
"XXXX.XX.     XX      XX     .XX...XX.     XX      XX     .XX.XXXX",
"XXXX.XX.    X   XXXX   X    .XX...XX.    X   XXXX   X    .XX.XXXX",
".....XX.   X  XXXXXXXX  X   .XX...XX.   X  XX    XX  X   .XX.....",
"XXXX.XX.   X  XXXXXXXX  X   .XX...XX.   X  X      X  X   .XX.XXXX",
"XXXX.XX.  X  XXXXXXXXXX  X  .XX...XX.  X  X   XX   X  X  .XX.XXXX",
"XXXX.XX.  X  XXXXX XXXX  X  .XX...XX.  X  X  X  X  X  X  .XX.XXXX",
".....XX.  X  XXXX  XXXX  X  .XX...XX.  X  X  X     X  X  .XX.....",
"XXXX.XX.  X  XXXX  XXXX  X  .XX...XX.  .  X   ..   X  .  .XX.XXXX",
"XXXX.XX.  .   .XX  XX.   .  .XX...XX.  .   .      .   .  .XX.XXXX",
"XXXX.XX.  .   ..XXXX..   .  .XX...XX.      ..    ..   .  .XX.XXXX",
".....XX.   .    ....        .XX...XX.        ....    .   .XX.....",
"XXXX.XX.   .                .XX...XX.                .   .XX.XXXX",
"XXXX.XX.    .               .XX...XX.               .    .XX.XXXX",
"XXXX.XX. X   ..             .XX...XX.             ..   X .XX.XXXX",
".....XX.       ...          .XX...XX.          ...       .XX.....",
"XXXX.XX.   X      ..        .XX...XX.        ..      X   .XX.XXXX",
"XXXX.XX.      X     ...     .XX...XX.     ...     X      .XX.XXXX",
"XXXX.XX.               .    .XX...XX.    .               .XX.XXXX",
".....XX.                .   .XX...XX.   .                .XX.....",
"XXXX.XX.                .   .XX...XX.   .                .XX.XXXX",
"XXXX.XX.                 .  .XX...XX.  .                 .XX.XXXX",
"XXXX.XX.                 .  .XX...XX.  .                 .XX.XXXX",
".....XX.                 .  .XX...XX.  .                 .XX.....",
"XXXX.XX.                 .  .XX...XX.  .                 .XX.XXXX",
"XXXX.XX.                 .  .XX...XX.  .                 .XX.XXXX",
"XXXX.XX.                    .XX...XX.                    .XX.XXXX",
".....XX.                    .XX...XX.                    .XX.....",
"XXXX.XX.             X   X  .XX...XX.   X   X    X       .XX.XXXX",
"XXXX.XX.                    .XX...XX.           XXX      .XX.XXXX",
"XXXX.XX.                    .XX...XX.            XXX     .XX.XXXX",
".....XX.      XX            .XX...XX.           X        .XX.....",
"XXXX.XX.     XXXX     X     .XX...XX.      X   XXX       .XX.XXXX",
"XXXX.XX.     XXXX           .XX...XX.           XXX      .XX.XXXX",
"XXXX.XX.    XXXX    XXX     .XX...XX.        X           .XX.XXXX",
".....XX.    XX     XXXX     .XX...XX.       XXX          .XX.....",
"XXXX.XX.    X     XXXX      .XX...XX.    X   XXX         .XX.XXXX",
"XXXX.XX.          X         .XX...XX.   XXX              .XX.XXXX",
"XXXX.XX.                    .XX...XX.    XX              .XX.XXXX",
".....XX.                    .XX...XX.     XX             .XX.....",
"XXXX.XX.  X                 .XX...XX.                 X  .XX.XXXX",
"XXXX.XX.  XX                .XX...XX.                XX  .XX.XXXX",
"XXXX.XX.  XXX    X          .XX...XX.          X    XXX  .XX.XXXX",
".....XX.  XXXX   XX         .XX...XX.         XX   XXXX  .XX.....",
"XXXX.XX.   XXXXX  XXX       .XX...XX.       XXX  XXXXX   .XX.XXXX",
"XXXX.XX.   XXXXXX XXXX      .XX...XX.      XXXX XXXXXX   .XX.XXXX",
"XXXX.XX.    XXXXX  XX       .XX...XX.       XX  XXXXX    .XX.XXXX",
".....XX.     XXX            .XX...XX.            XXX     .XX.....",
"XXXX.XX.                    .XX...XX.                    .XX.XXXX",
"XXXX.XX.                    .XX...XX.                    .XX.XXXX",
"XXXX.XX.                    .XX...XX.                    .XX.XXXX",
".....XX.                    .XX...XX.                    .XX....."
};
