/* XPM */
static char *result[] = {
/* columns rows colors chars-per-pixel */
"65 65 4 1 ",
"  c #4C513B",
". c #959F80",
"X c #DBE7C6",
"o c None",
/* pixels */
".................................................................",
"XXXXX.XX.XXX.XXX.XXX.XXX.XXX.XXX.XXX.XXX.XXX.XXX.XXX.XXX.XX.XXXXX",
"XXXXX.XX.XXX.XXX.XXX.XXX.XXX.XXX.XXX.XXX.XXX.XXX.XXX.XXX.XX.XXXXX",
"XXXXX.XX.XXX.XXX.XXX.XXX.XXX.XXX.XXX.XXX.XXX.XXX.XXX.XXX.XX.XXXXX",
"XXXXX.......................................................XXXXX",
"......                .XX.ooooooooooooo.XX.                ......",
"XXXX.                 .XX.ooooooooooooo.XX.                 .XXXX",
"XXXX.          X   X  .XX.ooooooooooooo.XX.  X   X          .XXXX",
".....          XX  X  .XX.ooooooooooooo.XX.  X  XX          .....",
"XXXX.           X  X  .XX.ooooooooooooo.XX.  X  X           .XXXX",
"XXXX.    XXXXX   X  X .XX.ooooooooooooo.XX. X  X   XXXXX    .XXXX",
"XXXX.               X .XX.ooooooooooooo.XX. X               .XXXX",
".....               X .XX.ooooooooooooo.XX. X               .....",
"XXXX.    XXXXXX     X .XX.ooooooooooooo.XX. X     XXXXXX    .XXXX",
"XXXX.  XX      XX     .XX.ooooooooooooo.XX.     XX      XX  .XXXX",
"XXXX. X   XXXX   X    .XX.ooooooooooooo.XX.    X   XXXX   X .XXXX",
".....X  XXXXXXXX  X   .XX.ooooooooooooo.XX.   X  XX    XX  X.....",
"XXXX.X  XXXXXXXX  X   .XX.ooooooooooooo.XX.   X  X      X  X.XXXX",
"XXXX.  XXXXXXXXXX  X  .XX.ooooooooooooo.XX.  X  X   XX   X  .XXXX",
"XXXX.  XXXXX XXXX  X  .XX.ooooooooooooo.XX.  X  X  X  X  X  .XXXX",
".....  XXXX  XXXX  X  .XX.ooooooooooooo.XX.  X  X  X     X  .....",
"XXXX.  XXXX  XXXX  X  .XX.ooooooooooooo.XX.  .  X   ..   X  .XXXX",
"XXXX.   .XX  XX.   .  .XX.ooooooooooooo.XX.  .   .      .   .XXXX",
"XXXX.   ..XXXX..   .  .XX.ooooooooooooo.XX.      ..    ..   .XXXX",
"......    ....        .XX.ooooooooooooo.XX.        ....    ......",
"XXXX..                .XX.ooooooooooooo.XX.                ..XXXX",
"XXXX. .               .XX.ooooooooooooo.XX.               . .XXXX",
"XXXX.  ..             .XX.ooooooooooooo.XX.             ..  .XXXX",
".....    ...          .XX.ooooooooooooo.XX.          ...    .....",
"XXXX.X      ..        .XX.ooooooooooooo.XX.        ..      X.XXXX",
"XXXX.   X     ...     .XX.ooooooooooooo.XX.     ...     X   .XXXX",
"XXXX.            .    .XX.ooooooooooooo.XX.    .            .XXXX",
".....             .   .XX.ooooooooooooo.XX.   .             .....",
"XXXX.             .   .XX.ooooooooooooo.XX.   .             .XXXX",
"XXXX.              .  .XX.ooooooooooooo.XX.  .              .XXXX",
"XXXX.              .  .XX.ooooooooooooo.XX.  .              .XXXX",
".....              .  .XX.ooooooooooooo.XX.  .              .....",
"XXXX.              .  .XX.ooooooooooooo.XX.  .              .XXXX",
"XXXX.              .  .XX.ooooooooooooo.XX.  .              .XXXX",
"XXXX.                 .XX.ooooooooooooo.XX.                 .XXXX",
".....                 .XX.ooooooooooooo.XX.                 .....",
"XXXX.          X   X  .XX.ooooooooooooo.XX.   X   X    X    .XXXX",
"XXXX.                 .XX.ooooooooooooo.XX.           XXX   .XXXX",
"XXXX.                 .XX.ooooooooooooo.XX.            XXX  .XXXX",
".....   XX            .XX.ooooooooooooo.XX.           X     .....",
"XXXX.  XXXX     X     .XX.ooooooooooooo.XX.      X   XXX    .XXXX",
"XXXX.  XXXX           .XX.ooooooooooooo.XX.           XXX   .XXXX",
"XXXX. XXXX    XXX     .XX.ooooooooooooo.XX.        X        .XXXX",
"..... XX     XXXX     .XX.ooooooooooooo.XX.       XXX       .....",
"XXXX. X     XXXX      .XX.ooooooooooooo.XX.    X   XXX      .XXXX",
"XXXX.       X         .XX.ooooooooooooo.XX.   XXX           .XXXX",
"XXXX.                 .XX.ooooooooooooo.XX.    XX           .XXXX",
".....                 .XX.ooooooooooooo.XX.     XX          .....",
"XXXX.                 .XX.ooooooooooooo.XX.                 .XXXX",
"XXXX.X                .XX.ooooooooooooo.XX.                X.XXXX",
"XXXX.XX    X          .XX.ooooooooooooo.XX.          X    XX.XXXX",
".....XXX   XX         .XX.ooooooooooooo.XX.         XX   XXX.....",
"XXXX.XXXXX  XXX       .XX.ooooooooooooo.XX.       XXX  XXXXX.XXXX",
"XXXX.XXXXXX XXXX      .XX.ooooooooooooo.XX.      XXXX XXXXXX.XXXX",
"XXXX. XXXXX  XX       .XX.ooooooooooooo.XX.       XX  XXXXX .XXXX",
".....  XXX            .XX.ooooooooooooo.XX.            XXX  .....",
"XXXX.                 .XX.ooooooooooooo.XX.                 .XXXX",
"XXXX.                 .XX.ooooooooooooo.XX.                 .XXXX",
"XXXX.                 .XX.ooooooooooooo.XX.                 .XXXX",
".....                 .XX.ooooooooooooo.XX.                 ....."
};
