/* XPM */
static char *_5110789cef84183c9749eb63166bd0dfXEG89jbPmqntHhb[] = {
/* columns rows colors chars-per-pixel */
"65 65 3 1 ",
"  c None",
". c #959F80",
"X c #DBE7C6",
/* pixels */
".................................................................",
"XXXXX.XX.XXX.XXX.XXX.XXX.XXX.XXX.XXX.XXX.XXX.XXX.XXX.XXX.XX.XXXXX",
"XXXXX.XX.XXX.XXX.XXX.XXX.XXX.XXX.XXX.XXX.XXX.XXX.XXX.XXX.XX.XXXXX",
"XXXXX.XX.XXX.XXX.XXX.XXX.XXX.XXX.XXX.XXX.XXX.XXX.XXX.XXX.XX.XXXXX",
"XXXXX.......................................................XXXXX",
"......X.                                                 .X......",
"XXXX.XX.                                                 .XX.XXXX",
"XXXX.XX.                                                 .XX.XXXX",
".....XX.                                                 .XX.....",
"XXXX.XX.                                                 .XX.XXXX",
"XXXX.XX.                                                 .XX.XXXX",
"XXXX.XX.                                                 .XX.XXXX",
".....XX.                                                 .XX.....",
"XXXX.XX.                                                 .XX.XXXX",
"XXXX.XX.                                                 .XX.XXXX",
"XXXX.XX.                                                 .XX.XXXX",
".....XX.                                                 .XX.....",
"XXXX.XX.                                                 .XX.XXXX",
"XXXX.XX.                                                 .XX.XXXX",
"XXXX.XX.                                                 .XX.XXXX",
".....XX.                                                 .XX.....",
"XXXX.XX.                                                 .XX.XXXX",
"XXXX.XX.                                                 .XX.XXXX",
"XXXX.XX.                                                 .XX.XXXX",
".....XX.                                                 .XX.....",
"XXXX.XX.                                                 .XX.XXXX",
"XXXX.XX.                                                 .XX.XXXX",
"XXXX.XX.                                                 .XX.XXXX",
".....XX.                                                 .XX.....",
"XXXX.XX.                                                 .XX.XXXX",
"XXXX.XX.                                                 .XX.XXXX",
"XXXX.XX.                                                 .XX.XXXX",
".....XX.                                                 .XX.....",
"XXXX.XX.                                                 .XX.XXXX",
"XXXX.XX.                                                 .XX.XXXX",
"XXXX.XX.                                                 .XX.XXXX",
".....XX.                                                 .XX.....",
"XXXX.XX.                                                 .XX.XXXX",
"XXXX.XX.                                                 .XX.XXXX",
"XXXX.XX.                                                 .XX.XXXX",
".....XX.                                                 .XX.....",
"XXXX.XX.                                                 .XX.XXXX",
"XXXX.XX.                                                 .XX.XXXX",
"XXXX.XX.                                                 .XX.XXXX",
".....XX.                                                 .XX.....",
"XXXX.XX.                                                 .XX.XXXX",
"XXXX.XX.                                                 .XX.XXXX",
"XXXX.XX.                                                 .XX.XXXX",
".....XX.                                                 .XX.....",
"XXXX.XX.                                                 .XX.XXXX",
"XXXX.XX.                                                 .XX.XXXX",
"XXXX.XX.                                                 .XX.XXXX",
".....XX.                                                 .XX.....",
"XXXX.XX.                                                 .XX.XXXX",
"XXXX.XX.                                                 .XX.XXXX",
"XXXX.XX.                                                 .XX.XXXX",
".....XX.                                                 .XX.....",
"XXXX.XX.                                                 .XX.XXXX",
"XXXX.XX.                                                 .XX.XXXX",
"XXXX.XX.                                                 .XX.XXXX",
".....XX.                                                 .XX.....",
"XXXX.XX.                                                 .XX.XXXX",
"XXXX.XX.                                                 .XX.XXXX",
"XXXX.XX.                                                 .XX.XXXX",
".....XX.                                                 .XX....."
};
