/* XPM */
static char *a81ad75bfd1f405de6fd7c1c0477dfbdfAj7kHhrWR7vlBcA[] = {
/* columns rows colors chars-per-pixel */
"65 65 2 1 ",
"  c #959F80",
". c #DBE7C6",
/* pixels */
"                                                                 ",
".. ..... ..... ..... ..... ..... ..... ..... ..... ..... ..... ..",
".. ..... ..... ..... ..... ..... ..... ..... ..... ..... ..... ..",
".. ..... ..... ..... ..... ..... ..... ..... ..... ..... ..... ..",
"                                                                 ",
"..... ..... ..... ..... ..... ..... ..... ..... ..... ..... .....",
"..... ..... ..... ..... ..... ..... ..... ..... ..... ..... .....",
"..... ..... ..... ..... ..... ..... ..... ..... ..... ..... .....",
"                                                                 ",
".. ..... ..... ..... ..... ..... ..... ..... ..... ..... ..... ..",
".. ..... ..... ..... ..... ..... ..... ..... ..... ..... ..... ..",
".. ..... ..... ..... ..... ..... ..... ..... ..... ..... ..... ..",
"                                                                 ",
"..... ..... ..... ..... ..... ..... ..... ..... ..... ..... .....",
"..... ..... ..... ..... ..... ..... ..... ..... ..... ..... .....",
"..... ..... ..... ..... ..... ..... ..... ..... ..... ..... .....",
"                                                                 ",
".. ..... ..... ..... ..... ..... ..... ..... ..... ..... ..... ..",
".. ..... ..... ..... ..... ..... ..... ..... ..... ..... ..... ..",
".. ..... ..... ..... ..... ..... ..... ..... ..... ..... ..... ..",
"                                                                 ",
"..... ..... ..... ..... ..... ..... ..... ..... ..... ..... .....",
"..... ..... ..... ..... ..... ..... ..... ..... ..... ..... .....",
"..... ..... ..... ..... ..... ..... ..... ..... ..... ..... .....",
"                                                                 ",
".. ..... ..... ..... ..... ..... ..... ..... ..... ..... ..... ..",
".. ..... ..... ..... ..... ..... ..... ..... ..... ..... ..... ..",
".. ..... ..... ..... ..... ..... ..... ..... ..... ..... ..... ..",
"                                                                 ",
"..... ..... ..... ..... ..... ..... ..... ..... ..... ..... .....",
"..... ..... ..... ..... ..... ..... ..... ..... ..... ..... .....",
"..... ..... ..... ..... ..... ..... ..... ..... ..... ..... .....",
"                                                                 ",
".. ..... ..... ..... ..... ..... ..... ..... ..... ..... ..... ..",
".. ..... ..... ..... ..... ..... ..... ..... ..... ..... ..... ..",
".. ..... ..... ..... ..... ..... ..... ..... ..... ..... ..... ..",
"                                                                 ",
"..... ..... ..... ..... ..... ..... ..... ..... ..... ..... .....",
"..... ..... ..... ..... ..... ..... ..... ..... ..... ..... .....",
"..... ..... ..... ..... ..... ..... ..... ..... ..... ..... .....",
"                                                                 ",
".. ..... ..... ..... ..... ..... ..... ..... ..... ..... ..... ..",
".. ..... ..... ..... ..... ..... ..... ..... ..... ..... ..... ..",
".. ..... ..... ..... ..... ..... ..... ..... ..... ..... ..... ..",
"                                                                 ",
"..... ..... ..... ..... ..... ..... ..... ..... ..... ..... .....",
"..... ..... ..... ..... ..... ..... ..... ..... ..... ..... .....",
"..... ..... ..... ..... ..... ..... ..... ..... ..... ..... .....",
"                                                                 ",
".. ..... ..... ..... ..... ..... ..... ..... ..... ..... ..... ..",
".. ..... ..... ..... ..... ..... ..... ..... ..... ..... ..... ..",
".. ..... ..... ..... ..... ..... ..... ..... ..... ..... ..... ..",
"                                                                 ",
"..... ..... ..... ..... ..... ..... ..... ..... ..... ..... .....",
"..... ..... ..... ..... ..... ..... ..... ..... ..... ..... .....",
"..... ..... ..... ..... ..... ..... ..... ..... ..... ..... .....",
"                                                                 ",
".. ..... ..... ..... ..... ..... ..... ..... ..... ..... ..... ..",
".. ..... ..... ..... ..... ..... ..... ..... ..... ..... ..... ..",
".. ..... ..... ..... ..... ..... ..... ..... ..... ..... ..... ..",
"                                                                 ",
"..... ..... ..... ..... ..... ..... ..... ..... ..... ..... .....",
"..... ..... ..... ..... ..... ..... ..... ..... ..... ..... .....",
"..... ..... ..... ..... ..... ..... ..... ..... ..... ..... .....",
"                                                                 "
};
