/* XPM */
static char *result[] = {
/* columns rows colors chars-per-pixel */
"65 65 4 1 ",
"  c #4C513B",
". c #959F80",
"X c #DBE7C6",
"o c None",
/* pixels */
".................................................................",
"XXXXX.XX.XXX.XXX.XXX.XXX.XXX.XXX.XXX.XXX.XXX.XXX.XXX.XXX.XX.XXXXX",
"XXXXX.XX.XXX.XXX.XXX.XXX.XXX.XXX.XXX.XXX.XXX.XXX.XXX.XXX.XX.XXXXX",
"XXXXX.XX.XXX.XXX.XXX.XXX.XXX.XXX.XXX.XXX.XXX.XXX.XXX.XXX.XX.XXXXX",
"XXXXX.......................................................XXXXX",
"......                   .XX.ooooooo.XX.                   ......",
"XXXX.                    .XX.ooooooo.XX.                    .XXXX",
"XXXX.             X   X  .XX.ooooooo.XX.  X   X             .XXXX",
".....             XX  X  .XX.ooooooo.XX.  X  XX             .....",
"XXXX.              X  X  .XX.ooooooo.XX.  X  X              .XXXX",
"XXXX.       XXXXX   X  X .XX.ooooooo.XX. X  X   XXXXX       .XXXX",
"XXXX.                  X .XX.ooooooo.XX. X                  .XXXX",
".....                  X .XX.ooooooo.XX. X                  .....",
"XXXX.       XXXXXX     X .XX.ooooooo.XX. X     XXXXXX       .XXXX",
"XXXX.     XX      XX     .XX.ooooooo.XX.     XX      XX     .XXXX",
"XXXX.    X   XXXX   X    .XX.ooooooo.XX.    X   XXXX   X    .XXXX",
".....   X  XXXXXXXX  X   .XX.ooooooo.XX.   X  XX    XX  X   .....",
"XXXX.   X  XXXXXXXX  X   .XX.ooooooo.XX.   X  X      X  X   .XXXX",
"XXXX.  X  XXXXXXXXXX  X  .XX.ooooooo.XX.  X  X   XX   X  X  .XXXX",
"XXXX.  X  XXXXX XXXX  X  .XX.ooooooo.XX.  X  X  X  X  X  X  .XXXX",
".....  X  XXXX  XXXX  X  .XX.ooooooo.XX.  X  X  X     X  X  .....",
"XXXX.  X  XXXX  XXXX  X  .XX.ooooooo.XX.  .  X   ..   X  .  .XXXX",
"XXXX.  .   .XX  XX.   .  .XX.ooooooo.XX.  .   .      .   .  .XXXX",
"XXXX.  .   ..XXXX..   .  .XX.ooooooo.XX.      ..    ..   .  .XXXX",
".....   .    ....        .XX.ooooooo.XX.        ....    .   .....",
"XXXX.   .                .XX.ooooooo.XX.                .   .XXXX",
"XXXX.    .               .XX.ooooooo.XX.               .    .XXXX",
"XXXX. X   ..             .XX.ooooooo.XX.             ..   X .XXXX",
".....       ...          .XX.ooooooo.XX.          ...       .....",
"XXXX.   X      ..        .XX.ooooooo.XX.        ..      X   .XXXX",
"XXXX.      X     ...     .XX.ooooooo.XX.     ...     X      .XXXX",
"XXXX.               .    .XX.ooooooo.XX.    .               .XXXX",
".....                .   .XX.ooooooo.XX.   .                .....",
"XXXX.                .   .XX.ooooooo.XX.   .                .XXXX",
"XXXX.                 .  .XX.ooooooo.XX.  .                 .XXXX",
"XXXX.                 .  .XX.ooooooo.XX.  .                 .XXXX",
".....                 .  .XX.ooooooo.XX.  .                 .....",
"XXXX.                 .  .XX.ooooooo.XX.  .                 .XXXX",
"XXXX.                 .  .XX.ooooooo.XX.  .                 .XXXX",
"XXXX.                    .XX.ooooooo.XX.                    .XXXX",
".....                    .XX.ooooooo.XX.                    .....",
"XXXX.             X   X  .XX.ooooooo.XX.   X   X    X       .XXXX",
"XXXX.                    .XX.ooooooo.XX.           XXX      .XXXX",
"XXXX.                    .XX.ooooooo.XX.            XXX     .XXXX",
".....      XX            .XX.ooooooo.XX.           X        .....",
"XXXX.     XXXX     X     .XX.ooooooo.XX.      X   XXX       .XXXX",
"XXXX.     XXXX           .XX.ooooooo.XX.           XXX      .XXXX",
"XXXX.    XXXX    XXX     .XX.ooooooo.XX.        X           .XXXX",
".....    XX     XXXX     .XX.ooooooo.XX.       XXX          .....",
"XXXX.    X     XXXX      .XX.ooooooo.XX.    X   XXX         .XXXX",
"XXXX.          X         .XX.ooooooo.XX.   XXX              .XXXX",
"XXXX.                    .XX.ooooooo.XX.    XX              .XXXX",
".....                    .XX.ooooooo.XX.     XX             .....",
"XXXX.  X                 .XX.ooooooo.XX.                 X  .XXXX",
"XXXX.  XX                .XX.ooooooo.XX.                XX  .XXXX",
"XXXX.  XXX    X          .XX.ooooooo.XX.          X    XXX  .XXXX",
".....  XXXX   XX         .XX.ooooooo.XX.         XX   XXXX  .....",
"XXXX.   XXXXX  XXX       .XX.ooooooo.XX.       XXX  XXXXX   .XXXX",
"XXXX.   XXXXXX XXXX      .XX.ooooooo.XX.      XXXX XXXXXX   .XXXX",
"XXXX.    XXXXX  XX       .XX.ooooooo.XX.       XX  XXXXX    .XXXX",
".....     XXX            .XX.ooooooo.XX.            XXX     .....",
"XXXX.                    .XX.ooooooo.XX.                    .XXXX",
"XXXX.                    .XX.ooooooo.XX.                    .XXXX",
"XXXX.                    .XX.ooooooo.XX.                    .XXXX",
".....                    .XX.ooooooo.XX.                    ....."
};
