/* XPM */
static char *result[] = {
/* columns rows colors chars-per-pixel */
"65 65 4 1 ",
"  c #4C513B",
". c #959F80",
"X c #DBE7C6",
"o c None",
/* pixels */
".................................................................",
"XXXXX.XX.XXX.XXX.XXX.XXX.XXX.XXX.XXX.XXX.XXX.XXX.XXX.XXX.XX.XXXXX",
"XXXXX.XX.XXX.XXX.XXX.XXX.XXX.XXX.XXX.XXX.XXX.XXX.XXX.XXX.XX.XXXXX",
"XXXXX.XX.XXX.XXX.XXX.XXX.XXX.XXX.XXX.XXX.XXX.XXX.XXX.XXX.XX.XXXXX",
"XXXXX.......................................................XXXXX",
"......             .XX.ooooooooooooooooooo.XX.             ......",
"XXXX.              .XX.ooooooooooooooooooo.XX.              .XXXX",
"XXXX.       X   X  .XX.ooooooooooooooooooo.XX.  X   X       .XXXX",
".....       XX  X  .XX.ooooooooooooooooooo.XX.  X  XX       .....",
"XXXX.        X  X  .XX.ooooooooooooooooooo.XX.  X  X        .XXXX",
"XXXX. XXXXX   X  X .XX.ooooooooooooooooooo.XX. X  X   XXXXX .XXXX",
"XXXX.            X .XX.ooooooooooooooooooo.XX. X            .XXXX",
".....            X .XX.ooooooooooooooooooo.XX. X            .....",
"XXXX. XXXXXX     X .XX.ooooooooooooooooooo.XX. X     XXXXXX .XXXX",
"XXXX.X      XX     .XX.ooooooooooooooooooo.XX.     XX      X.XXXX",
"XXXX.  XXXX   X    .XX.ooooooooooooooooooo.XX.    X   XXXX  .XXXX",
".....XXXXXXXX  X   .XX.ooooooooooooooooooo.XX.   X  XX    XX.....",
"XXXX.XXXXXXXX  X   .XX.ooooooooooooooooooo.XX.   X  X      X.XXXX",
"XXXX.XXXXXXXXX  X  .XX.ooooooooooooooooooo.XX.  X  X   XX   .XXXX",
"XXXX.XXXX XXXX  X  .XX.ooooooooooooooooooo.XX.  X  X  X  X  .XXXX",
".....XXX  XXXX  X  .XX.ooooooooooooooooooo.XX.  X  X  X     .....",
"XXXX.XXX  XXXX  X  .XX.ooooooooooooooooooo.XX.  .  X   ..   .XXXX",
"XXXX..XX  XX.   .  .XX.ooooooooooooooooooo.XX.  .   .      ..XXXX",
"XXXX...XXXX..   .  .XX.ooooooooooooooooooo.XX.      ..    ...XXXX",
".....  ....        .XX.ooooooooooooooooooo.XX.        ....  .....",
"XXXX.              .XX.ooooooooooooooooooo.XX.              .XXXX",
"XXXX.              .XX.ooooooooooooooooooo.XX.              .XXXX",
"XXXX..             .XX.ooooooooooooooooooo.XX.             ..XXXX",
"..... ...          .XX.ooooooooooooooooooo.XX.          ... .....",
"XXXX.    ..        .XX.ooooooooooooooooooo.XX.        ..    .XXXX",
"XXXX.X     ...     .XX.ooooooooooooooooooo.XX.     ...     X.XXXX",
"XXXX.         .    .XX.ooooooooooooooooooo.XX.    .         .XXXX",
".....          .   .XX.ooooooooooooooooooo.XX.   .          .....",
"XXXX.          .   .XX.ooooooooooooooooooo.XX.   .          .XXXX",
"XXXX.           .  .XX.ooooooooooooooooooo.XX.  .           .XXXX",
"XXXX.           .  .XX.ooooooooooooooooooo.XX.  .           .XXXX",
".....           .  .XX.ooooooooooooooooooo.XX.  .           .....",
"XXXX.           .  .XX.ooooooooooooooooooo.XX.  .           .XXXX",
"XXXX.           .  .XX.ooooooooooooooooooo.XX.  .           .XXXX",
"XXXX.              .XX.ooooooooooooooooooo.XX.              .XXXX",
".....              .XX.ooooooooooooooooooo.XX.              .....",
"XXXX.       X   X  .XX.ooooooooooooooooooo.XX.   X   X    X .XXXX",
"XXXX.              .XX.ooooooooooooooooooo.XX.           XXX.XXXX",
"XXXX.              .XX.ooooooooooooooooooo.XX.            XX.XXXX",
".....XX            .XX.ooooooooooooooooooo.XX.           X  .....",
"XXXX.XXX     X     .XX.ooooooooooooooooooo.XX.      X   XXX .XXXX",
"XXXX.XXX           .XX.ooooooooooooooooooo.XX.           XXX.XXXX",
"XXXX.XX    XXX     .XX.ooooooooooooooooooo.XX.        X     .XXXX",
".....     XXXX     .XX.ooooooooooooooooooo.XX.       XXX    .....",
"XXXX.    XXXX      .XX.ooooooooooooooooooo.XX.    X   XXX   .XXXX",
"XXXX.    X         .XX.ooooooooooooooooooo.XX.   XXX        .XXXX",
"XXXX.              .XX.ooooooooooooooooooo.XX.    XX        .XXXX",
".....              .XX.ooooooooooooooooooo.XX.     XX       .....",
"XXXX.              .XX.ooooooooooooooooooo.XX.              .XXXX",
"XXXX.              .XX.ooooooooooooooooooo.XX.              .XXXX",
"XXXX.   X          .XX.ooooooooooooooooooo.XX.          X   .XXXX",
".....   XX         .XX.ooooooooooooooooooo.XX.         XX   .....",
"XXXX.XX  XXX       .XX.ooooooooooooooooooo.XX.       XXX  XX.XXXX",
"XXXX.XXX XXXX      .XX.ooooooooooooooooooo.XX.      XXXX XXX.XXXX",
"XXXX.XXX  XX       .XX.ooooooooooooooooooo.XX.       XX  XXX.XXXX",
".....XX            .XX.ooooooooooooooooooo.XX.            XX.....",
"XXXX.              .XX.ooooooooooooooooooo.XX.              .XXXX",
"XXXX.              .XX.ooooooooooooooooooo.XX.              .XXXX",
"XXXX.              .XX.ooooooooooooooooooo.XX.              .XXXX",
".....              .XX.ooooooooooooooooooo.XX.              ....."
};
