/* XPM */
static char *result[] = {
/* columns rows colors chars-per-pixel */
"65 65 4 1 ",
"  c #4C513B",
". c #959F80",
"X c #DBE7C6",
"o c None",
/* pixels */
".................................................................",
"XXXXX.XX.XXX.XXX.XXX.XXX.XXX.XXX.XXX.XXX.XXX.XXX.XXX.XXX.XX.XXXXX",
"XXXXX.XX.XXX.XXX.XXX.XXX.XXX.XXX.XXX.XXX.XXX.XXX.XXX.XXX.XX.XXXXX",
"XXXXX.XX.XXX.XXX.XXX.XXX.XXX.XXX.XXX.XXX.XXX.XXX.XXX.XXX.XX.XXXXX",
"XXXXX.......................................................XXXXX",
"......    .XX.ooooooooooooooooooooooooooooooooooooo.XX.    ......",
"XXXX.     .XX.ooooooooooooooooooooooooooooooooooooo.XX.     .XXXX",
"XXXX.  X  .XX.ooooooooooooooooooooooooooooooooooooo.XX.  X  .XXXX",
".....  X  .XX.ooooooooooooooooooooooooooooooooooooo.XX.  X  .....",
"XXXX.  X  .XX.ooooooooooooooooooooooooooooooooooooo.XX.  X  .XXXX",
"XXXX.X  X .XX.ooooooooooooooooooooooooooooooooooooo.XX. X  X.XXXX",
"XXXX.   X .XX.ooooooooooooooooooooooooooooooooooooo.XX. X   .XXXX",
".....   X .XX.ooooooooooooooooooooooooooooooooooooo.XX. X   .....",
"XXXX.   X .XX.ooooooooooooooooooooooooooooooooooooo.XX. X   .XXXX",
"XXXX.     .XX.ooooooooooooooooooooooooooooooooooooo.XX.     .XXXX",
"XXXX.X    .XX.ooooooooooooooooooooooooooooooooooooo.XX.    X.XXXX",
"..... X   .XX.ooooooooooooooooooooooooooooooooooooo.XX.   X .....",
"XXXX. X   .XX.ooooooooooooooooooooooooooooooooooooo.XX.   X .XXXX",
"XXXX.  X  .XX.ooooooooooooooooooooooooooooooooooooo.XX.  X  .XXXX",
"XXXX.  X  .XX.ooooooooooooooooooooooooooooooooooooo.XX.  X  .XXXX",
".....  X  .XX.ooooooooooooooooooooooooooooooooooooo.XX.  X  .....",
"XXXX.  X  .XX.ooooooooooooooooooooooooooooooooooooo.XX.  .  .XXXX",
"XXXX.  .  .XX.ooooooooooooooooooooooooooooooooooooo.XX.  .  .XXXX",
"XXXX.  .  .XX.ooooooooooooooooooooooooooooooooooooo.XX.     .XXXX",
".....     .XX.ooooooooooooooooooooooooooooooooooooo.XX.     .....",
"XXXX.     .XX.ooooooooooooooooooooooooooooooooooooo.XX.     .XXXX",
"XXXX.     .XX.ooooooooooooooooooooooooooooooooooooo.XX.     .XXXX",
"XXXX.     .XX.ooooooooooooooooooooooooooooooooooooo.XX.     .XXXX",
".....     .XX.ooooooooooooooooooooooooooooooooooooo.XX.     .....",
"XXXX.     .XX.ooooooooooooooooooooooooooooooooooooo.XX.     .XXXX",
"XXXX.     .XX.ooooooooooooooooooooooooooooooooooooo.XX.     .XXXX",
"XXXX..    .XX.ooooooooooooooooooooooooooooooooooooo.XX.    ..XXXX",
"..... .   .XX.ooooooooooooooooooooooooooooooooooooo.XX.   . .....",
"XXXX. .   .XX.ooooooooooooooooooooooooooooooooooooo.XX.   . .XXXX",
"XXXX.  .  .XX.ooooooooooooooooooooooooooooooooooooo.XX.  .  .XXXX",
"XXXX.  .  .XX.ooooooooooooooooooooooooooooooooooooo.XX.  .  .XXXX",
".....  .  .XX.ooooooooooooooooooooooooooooooooooooo.XX.  .  .....",
"XXXX.  .  .XX.ooooooooooooooooooooooooooooooooooooo.XX.  .  .XXXX",
"XXXX.  .  .XX.ooooooooooooooooooooooooooooooooooooo.XX.  .  .XXXX",
"XXXX.     .XX.ooooooooooooooooooooooooooooooooooooo.XX.     .XXXX",
".....     .XX.ooooooooooooooooooooooooooooooooooooo.XX.     .....",
"XXXX.  X  .XX.ooooooooooooooooooooooooooooooooooooo.XX.   X .XXXX",
"XXXX.     .XX.ooooooooooooooooooooooooooooooooooooo.XX.     .XXXX",
"XXXX.     .XX.ooooooooooooooooooooooooooooooooooooo.XX.     .XXXX",
".....     .XX.ooooooooooooooooooooooooooooooooooooo.XX.     .....",
"XXXX.     .XX.ooooooooooooooooooooooooooooooooooooo.XX.     .XXXX",
"XXXX.     .XX.ooooooooooooooooooooooooooooooooooooo.XX.     .XXXX",
"XXXX.     .XX.ooooooooooooooooooooooooooooooooooooo.XX.     .XXXX",
".....     .XX.ooooooooooooooooooooooooooooooooooooo.XX.     .....",
"XXXX.     .XX.ooooooooooooooooooooooooooooooooooooo.XX.    X.XXXX",
"XXXX.     .XX.ooooooooooooooooooooooooooooooooooooo.XX.   XX.XXXX",
"XXXX.     .XX.ooooooooooooooooooooooooooooooooooooo.XX.    X.XXXX",
".....     .XX.ooooooooooooooooooooooooooooooooooooo.XX.     .....",
"XXXX.     .XX.ooooooooooooooooooooooooooooooooooooo.XX.     .XXXX",
"XXXX.     .XX.ooooooooooooooooooooooooooooooooooooo.XX.     .XXXX",
"XXXX.     .XX.ooooooooooooooooooooooooooooooooooooo.XX.     .XXXX",
".....     .XX.ooooooooooooooooooooooooooooooooooooo.XX.     .....",
"XXXX.     .XX.ooooooooooooooooooooooooooooooooooooo.XX.     .XXXX",
"XXXX.     .XX.ooooooooooooooooooooooooooooooooooooo.XX.     .XXXX",
"XXXX.     .XX.ooooooooooooooooooooooooooooooooooooo.XX.     .XXXX",
".....     .XX.ooooooooooooooooooooooooooooooooooooo.XX.     .....",
"XXXX.     .XX.ooooooooooooooooooooooooooooooooooooo.XX.     .XXXX",
"XXXX.     .XX.ooooooooooooooooooooooooooooooooooooo.XX.     .XXXX",
"XXXX.     .XX.ooooooooooooooooooooooooooooooooooooo.XX.     .XXXX",
".....     .XX.ooooooooooooooooooooooooooooooooooooo.XX.     ....."
};
