/* XPM */
static char *_ea3f0987d2c42cfe0223a066a6bb1b05WRlgtDrl9QoOshm[] = {
/* columns rows colors chars-per-pixel */
"65 65 4 1 ",
"  c None",
". c #4C513B",
"X c #959F80",
"o c #DBE7C6",
/* pixels */
"XXXXXXXXXXXXXXXXXXXXXXXXXXXXXXXXXXXXXXXXXXXXXXXXXXXXXXXXXXXXXXXXX",
"oooooXooXoooXoooXoooXoooXoooXoooXoooXoooXoooXoooXoooXoooXooXooooo",
"oooooXooXoooXoooXoooXoooXoooXoooXoooXoooXoooXoooXoooXoooXooXooooo",
"oooooXooXoooXoooXoooXoooXoooXoooXoooXoooXoooXoooXoooXoooXooXooooo",
"oooooXXXXXXXXXXXXXXXXXXXXXXXXXXXXXXXXXXXXXXXXXXXXXXXXXXXXXXXooooo",
"XXXXXXXooX                                             XooXXXXXXX",
"ooooX.XooX                                             XooX.Xoooo",
"ooooX.XooX                                             XooX.Xoooo",
"XXXXX.XooX                                             XooX.XXXXX",
"ooooX.XooX                                             XooX.Xoooo",
"ooooX.XooX                                             XooX.Xoooo",
"ooooX.XooX                                             XooX.Xoooo",
"XXXXX.XooX                                             XooX.XXXXX",
"ooooX.XooX                                             XooX.Xoooo",
"ooooX.XooX                                             XooX.Xoooo",
"ooooX.XooX                                             XooX.Xoooo",
"XXXXX.XooX                                             XooX.XXXXX",
"ooooX.XooX                                             XooX.Xoooo",
"ooooX.XooX                                             XooX.Xoooo",
"ooooX.XooX                                             XooX.Xoooo",
"XXXXX.XooX                                             XooX.XXXXX",
"ooooX.XooX                                             XooX.Xoooo",
"ooooX.XooX                                             XooX.Xoooo",
"ooooX.XooX                                             XooX.Xoooo",
"XXXXX.XooX                                             XooX.XXXXX",
"ooooX.XooX                                             XooX.Xoooo",
"ooooX.XooX                                             XooX.Xoooo",
"ooooX.XooX                                             XooX.Xoooo",
"XXXXX.XooX                                             XooX.XXXXX",
"ooooX.XooX                                             XooX.Xoooo",
"ooooX.XooX                                             XooX.Xoooo",
"ooooX.XooX                                             XooX.Xoooo",
"XXXXX.XooX                                             XooX.XXXXX",
"ooooX.XooX                                             XooX.Xoooo",
"ooooX.XooX                                             XooX.Xoooo",
"ooooX.XooX                                             XooX.Xoooo",
"XXXXX.XooX                                             XooX.XXXXX",
"ooooX.XooX                                             XooX.Xoooo",
"ooooX.XooX                                             XooX.Xoooo",
"ooooX.XooX                                             XooX.Xoooo",
"XXXXX.XooX                                             XooX.XXXXX",
"ooooX.XooX                                             XooX.Xoooo",
"ooooX.XooX                                             XooX.Xoooo",
"ooooX.XooX                                             XooX.Xoooo",
"XXXXX.XooX                                             XooX.XXXXX",
"ooooX.XooX                                             XooX.Xoooo",
"ooooX.XooX                                             XooX.Xoooo",
"ooooX.XooX                                             XooX.Xoooo",
"XXXXX.XooX                                             XooX.XXXXX",
"ooooX.XooX                                             XooX.Xoooo",
"ooooX.XooX                                             XooX.Xoooo",
"ooooX.XooX                                             XooX.Xoooo",
"XXXXX.XooX                                             XooX.XXXXX",
"ooooX.XooX                                             XooX.Xoooo",
"ooooX.XooX                                             XooX.Xoooo",
"ooooX.XooX                                             XooX.Xoooo",
"XXXXX.XooX                                             XooX.XXXXX",
"ooooX.XooX                                             XooX.Xoooo",
"ooooX.XooX                                             XooX.Xoooo",
"ooooX.XooX                                             XooX.Xoooo",
"XXXXX.XooX                                             XooX.XXXXX",
"ooooX.XooX                                             XooX.Xoooo",
"ooooX.XooX                                             XooX.Xoooo",
"ooooX.XooX                                             XooX.Xoooo",
"XXXXX.XooX                                             XooX.XXXXX"
};
